<?xml version="1.0" encoding="utf-8"?>
<!-- Generator: Adobe Illustrator 25.4.1, SVG Export Plug-In . SVG Version: 6.00 Build 0)  -->
<svg version="1.1" id="Capa_1" xmlns="http://www.w3.org/2000/svg" xmlns:xlink="http://www.w3.org/1999/xlink" x="0px" y="0px"
	 viewBox="0 0 768 768" style="enable-background:new 0 0 768 768;" xml:space="preserve">
<style type="text/css">
	.st0{fill:#FFFFFF;}
</style>
<path class="st0" d="M733.35,241.23c-4.08-9.68-8.64-19.21-13.54-28.55c-0.22-0.42-0.47-0.81-0.69-1.23
	c20.68-56.92,38.89-121.38,19.03-169.83c-3.8-9.25-11.45-16.84-21.01-20.82C675.22,3.34,614.9,15.12,537.26,38.16
	c-1.42,0.42-2.68,1.1-3.81,1.93c-17.61-7.56-35.82-13.83-54.35-18.62c-0.02-0.01-0.03-0.01-0.05-0.02
	c-6.39-1.64-13.31-3.2-21.16-4.76c0,0-0.01,0-0.01,0c-49.67-9.82-101.13-9.56-149.91,0.37c-24.94,5.08-49.27,12.83-72.67,22.82
	c-1.15-0.86-2.45-1.57-3.91-2C153.77,14.7,93.48,2.82,51.53,20.2c-9.56,3.97-17.24,11.54-21.05,20.78
	C10.54,89.39,28.62,153.87,49.2,210.82c-2.29,4.3-4.56,8.62-6.67,12.99c-10.75,22.27-19.33,45.68-25.5,69.59
	c-1.58,6.12-3.01,12.29-4.25,18.33C7.63,336.72,5.02,362.41,5,388.1c0,0.06,0.01,0.11,0.01,0.17c0,5.53,0.15,11.03,0.38,16.51
	c0,0,0,0.01,0,0.01l0.2,4.23c0,0,0,0.01,0,0.01c0.27,5.05,0.62,10.07,1.09,15.06c0,0.03,0.02,0.05,0.03,0.08
	c0,0.06-0.01,0.11-0.01,0.17l0.1,1.14c0,0.01,0,0.01,0,0.02c0,0.01,0,0.03,0.01,0.04l0,0.09c0,0.01,0.01,0.01,0.01,0.02
	c0.54,5.56,1.22,11.07,2.01,16.56c0,0,0,0.01,0,0.01l0.42,2.84c0.78,5.22,1.66,10.41,2.65,15.56c0.01,0.02,0.02,0.04,0.03,0.07
	c0.01,0.04,0.01,0.07,0.01,0.11l0.03-0.01c0,0,0,0.01,0,0.01c0.02,0.1,0.01,0.2,0.03,0.3c0.01,0.03,0.07,0.37,0.07,0.4
	c0,0.01,0.01,0.02,0.01,0.03c0,0.01,0,0.02,0,0.02c0.5,2.54,1.12,5.04,1.67,7.56c0.69,3.18,1.33,6.39,2.1,9.54
	c0,0.01,0.01,0.02,0.01,0.03l0.11,0.46l0.05,0.2c0,0.01,0,0.03,0.01,0.04c1.39,5.62,2.89,11.19,4.53,16.71
	c0,0.01,0.01,0.01,0.01,0.02c0.02,0.05,0.03,0.1,0.04,0.14c0,0,0,0.01,0,0.01c0,0.01,0,0.01,0,0.02c0,0.01,0,0.02,0.01,0.03
	c0,0,0,0.01,0.01,0.01c3.34,11.27,7.27,22.52,11.66,33.45c-0.57-1.43-1.07-2.9-1.63-4.34c-2.45,3.38-4.67,6.92-6.45,10.71
	c-9.36,19.94-7.87,43.54,4,63.14c8.82,14.56,22.15,25.15,37.42,30.46c37.48,74.88,164.31,128.66,319.4,128.8
	c155.28,0.14,282.33-53.54,319.77-128.5c25.65-9.59,44.52-35.48,44.83-63.97c0.11-10.06-1.97-19.81-6.19-28.98
	c-1.77-3.84-3.98-7.42-6.41-10.82c-0.55,1.42-1.05,2.87-1.62,4.28c3.62-8.95,6.81-18.08,9.72-27.23c0.66-2.08,1.4-4.15,2.02-6.24
	c0.01-0.02,0.01-0.04,0.01-0.07c0.01-0.04,0.03-0.09,0.04-0.13c0-0.01,0.02-0.03,0.02-0.04c1.64-5.48,3.14-11.01,4.53-16.59
	c0-0.02,0-0.03,0-0.05c0-0.01,0.01-0.02,0.01-0.03l0.2-0.78c0-0.01,0.01-0.01,0.01-0.02c1.39-5.64,2.66-11.32,3.79-17.07
	c0-0.01,0-0.02,0-0.02c0-0.01,0.01-0.02,0.01-0.03l0.16-0.91c0,0,0-0.01,0-0.01c1.01-5.13,1.88-10.3,2.68-15.5c0-0.01,0-0.02,0-0.03
	c0,0,0-0.01,0-0.01l0.43-2.83c0-0.01,0-0.02,0-0.04c0-0.01,0-0.01,0-0.01c0.6-4.19,1.08-8.41,1.55-12.64
	c0.16-1.36,0.37-2.71,0.5-4.07c0-0.01,0-0.01,0-0.01c0-0.01,0-0.02,0-0.03c0-0.01,0-0.02,0-0.03l0.08-0.85l0.03-0.34
	c0-0.01,0-0.01,0-0.01c0.49-5.04,0.85-10.12,1.13-15.21c0,0,0-0.01,0-0.01l0.21-4.19c0,0,0-0.01,0-0.01
	c0.25-5.54,0.41-11.11,0.42-16.71C763.05,337.62,753.07,287.98,733.35,241.23z"/>
</svg>
