<?xml version="1.0" encoding="utf-8"?>
<!-- Generator: Adobe Illustrator 25.4.1, SVG Export Plug-In . SVG Version: 6.00 Build 0)  -->
<svg version="1.1" id="Capa_1" xmlns="http://www.w3.org/2000/svg" xmlns:xlink="http://www.w3.org/1999/xlink" x="0px" y="0px"
	 viewBox="0 0 340.48 336.91" style="enable-background:new 0 0 340.48 336.91;" xml:space="preserve">
<style type="text/css">
	.st0{opacity:0.6;fill:url(#SVGID_1_);}
	.st1{fill:#FEF4EE;}
	.st2{opacity:0.1;fill:#577D1E;}
	.st3{opacity:0.6;fill:url(#SVGID_00000030466013509574367730000004588238448944664506_);}
	.st4{fill:#B14534;}
	.st5{fill:#FFFFFF;}
	.st6{opacity:0.2;fill:#A4C96A;}
	.st7{fill:#FAAF78;}
	.st8{opacity:0.4;fill:#FF7A8E;}
	.st9{opacity:0.5;}
	.st10{fill:#FF7A8E;}
	.st11{opacity:0.2118;}
	.st12{fill:#6B1952;}
	.st13{fill:#F77D48;}
	.st14{fill:#A33C34;}
	.st15{opacity:0.2;}
	.st16{fill:#39005E;}
	.st17{opacity:0.6;}
	.st18{fill-rule:evenodd;clip-rule:evenodd;fill:#6B1952;}
	.st19{fill:#FF6294;}
	.st20{fill-rule:evenodd;clip-rule:evenodd;fill:#FFFFFF;}
	.st21{opacity:0.35;}
	.st22{fill:#6B184E;}
	.st23{opacity:0.5;fill:#FFFFFF;}
	.st24{opacity:0.4;}
	.st25{fill:none;stroke:#F49257;stroke-miterlimit:10;}
	.st26{fill:#95224C;stroke:#95224C;stroke-width:2;stroke-linecap:round;stroke-linejoin:round;stroke-miterlimit:10;}
	.st27{fill:#95224C;}
	.st28{fill:#B14534;stroke:#B14534;stroke-width:3;stroke-miterlimit:10;}
	.st29{fill:#F49257;stroke:#F49257;stroke-width:3;stroke-linecap:round;stroke-linejoin:round;stroke-miterlimit:10;}
	.st30{fill:none;stroke:#B14534;stroke-width:3;stroke-miterlimit:10;}
	.st31{fill:#FFFFFF;stroke:#F49257;stroke-width:3;stroke-miterlimit:10;}
	.st32{fill:#FFFFFF;stroke:#B14534;stroke-width:3;stroke-miterlimit:10;}
	.st33{fill:none;stroke:#F49257;stroke-width:3;stroke-linecap:round;stroke-linejoin:round;stroke-miterlimit:10;}
	.st34{fill:#F49257;stroke:#F49257;stroke-miterlimit:10;}
	.st35{fill:#7B933C;}
	.st36{clip-path:url(#SVGID_00000041286577786742367270000017725585984727381412_);fill:#B14534;}
	.st37{fill:#F49257;}
	.st38{fill:none;stroke:#F49257;stroke-width:3;stroke-miterlimit:10;}
	.st39{fill:none;stroke:#95224C;stroke-width:3;stroke-linecap:round;stroke-miterlimit:10;}
	.st40{fill:none;stroke:#B14534;stroke-width:3;stroke-linecap:round;stroke-miterlimit:10;}
	.st41{opacity:0.5;fill:#FAAF78;stroke:#F49257;stroke-width:3;stroke-miterlimit:10;}
	.st42{clip-path:url(#SVGID_00000178919657575640439180000010747852058716931750_);fill:#B14534;}
	.st43{fill:#CA5E72;}
	.st44{fill:#F49257;stroke:#FAAF78;stroke-width:2;stroke-miterlimit:10;}
	.st45{fill:#7B933C;stroke:#A4C96A;stroke-width:2;stroke-miterlimit:10;}
	.st46{fill:#B14534;stroke:#D86F67;stroke-width:2;stroke-miterlimit:10;}
	.st47{opacity:0.5;fill:#F49257;}
	.st48{opacity:0.5;fill:#FAAF78;}
	.st49{clip-path:url(#SVGID_00000110465331494911775560000017656810793557280682_);}
	.st50{opacity:0.5;fill:#CA5E72;}
	.st51{clip-path:url(#SVGID_00000045610205711521963280000004073667309910717593_);}
	.st52{clip-path:url(#SVGID_00000023992076641679226930000014575908827672694931_);}
	.st53{clip-path:url(#SVGID_00000054971742306360390280000007482082337974777474_);}
	.st54{clip-path:url(#SVGID_00000036930364040917887090000014425244656376927378_);}
	.st55{clip-path:url(#SVGID_00000042002274602209344510000001281955512641192881_);}
	.st56{fill:#09487E;}
	.st57{opacity:0.5;fill:#09487E;}
	.st58{clip-path:url(#SVGID_00000033369644569761845280000002798348378354136746_);}
	.st59{clip-path:url(#SVGID_00000111186228474735123230000007691137633035180951_);}
	.st60{clip-path:url(#SVGID_00000114045748798142411400000003183481444489715864_);}
	.st61{fill:url(#SVGID_00000002366355661057893190000010903839644064993160_);}
	.st62{clip-path:url(#SVGID_00000041294636092725548960000006619395413513090445_);}
	.st63{fill:#7B933C;stroke:#FFFFFF;stroke-width:0.25;stroke-miterlimit:10;}
	.st64{clip-path:url(#SVGID_00000168110506163405357180000008373103371046040195_);}
	.st65{opacity:0.5;fill:#95224C;}
	.st66{clip-path:url(#SVGID_00000136396541146273661330000013549221979557876109_);}
	.st67{clip-path:url(#SVGID_00000124127071069178372840000007352662474854447788_);}
	.st68{clip-path:url(#SVGID_00000006709247052057309430000008384551623503210401_);}
	.st69{fill:url(#SVGID_00000047025019952514067440000001535748252738251904_);}
	.st70{clip-path:url(#SVGID_00000060716263577447693750000000708221155042542759_);}
	.st71{opacity:0.5;fill:#A4C96A;}
	.st72{fill:#A4C96A;}
	.st73{opacity:0.35;fill:#95224C;}
	.st74{fill:#DFDFDF;}
	.st75{clip-path:url(#SVGID_00000058564417835278376410000017322135484864731067_);fill:#B14534;}
	.st76{fill:#577D1E;}
	.st77{clip-path:url(#SVGID_00000038372492002819622800000005504616244808366222_);}
	.st78{clip-path:url(#SVGID_00000176019007358625591780000000293754585278776480_);}
	.st79{opacity:0.35;fill:#F49257;}
	.st80{opacity:0.7;fill:#F49257;}
	.st81{opacity:0.35;fill:#B14534;}
	.st82{fill:none;stroke:#0000FF;stroke-width:4;stroke-linecap:round;stroke-linejoin:round;stroke-miterlimit:10;}
	.st83{fill:none;stroke:#0000FF;stroke-width:4;stroke-miterlimit:10;}
	.st84{fill:#0000FF;}
	.st85{fill:none;stroke:#0000FF;stroke-width:2;stroke-miterlimit:10;}
	.st86{fill:none;stroke:#0000FF;stroke-width:2;stroke-linecap:round;stroke-linejoin:round;stroke-miterlimit:10;}
	.st87{fill:none;stroke:#0000FF;stroke-miterlimit:10;}
	.st88{fill:url(#);}
	.st89{fill:#3E5902;}
	.st90{fill:#FFFFFD;stroke:#993300;stroke-width:3;stroke-miterlimit:10;}
	.st91{fill:#FAAF78;stroke:#993300;stroke-width:3;stroke-miterlimit:10;}
	.st92{fill:#FFFFFD;}
	.st93{fill:#FBD4BD;}
	.st94{fill:#F7AF84;}
	.st95{fill:#993300;stroke:#993300;stroke-miterlimit:10;}
	.st96{fill:none;stroke:#FBD4BD;stroke-width:3;}
	.st97{opacity:0.3;fill:url(#);}
	.st98{opacity:0.7;}
	.st99{fill:url(#SVGID_00000086683774715574993890000014680543683823798973_);}
	.st100{opacity:0.8;}
	.st101{fill:url(#SVGID_00000001657806155792741050000004971444067976093080_);}
	.st102{fill:url(#SVGID_00000101800735679405739230000014280265953855298236_);}
	.st103{clip-path:url(#SVGID_00000035491235030761408020000016311467061487471545_);}
	.st104{fill:#FFFFFF;stroke:#A4C96A;stroke-width:25;stroke-linecap:round;stroke-linejoin:round;stroke-miterlimit:10;}
</style>
<g>
	<g>
		<path class="st23" d="M327.1,103.96c-0.82-1.93-1.69-3.89-2.63-5.87c8.16-24.13,13.95-50.82,4.55-73.7
			c-3.41-8.29-10.18-15.04-18.59-18.54c-7.73-3.21-16.33-4.77-26.29-4.77c-16.94,0-36.41,4.78-53.82,9.84
			c-5.68-2.15-11.45-3.98-17.24-5.48c-0.11-0.03-0.22-0.06-0.33-0.09c-2.93-0.75-6.03-1.44-9.48-2.12
			c-0.04-0.01-0.09-0.02-0.13-0.02C192.34,1.07,181.25,0,170.16,0c-11.52,0-23.03,1.16-34.21,3.44c-8.63,1.77-17.26,4.28-25.73,7.49
			C92.81,5.87,73.31,1.07,56.35,1.07c-9.96,0-18.56,1.56-26.29,4.77c-8.41,3.5-15.18,10.25-18.59,18.53
			c-9.41,22.89-3.61,49.57,4.54,73.69c-4.46,9.52-8.04,19.48-10.65,29.63c-0.71,2.76-1.35,5.53-1.9,8.24
			C1.16,147.16,0,158.69,0,170.23c0,0.13,0,0.26,0,0.39c0.01,2.18,0.06,4.51,0.17,7.09l0.09,1.79c0.13,2.44,0.29,4.62,0.49,6.74
			c0,0,0,0.01,0,0.01l0.03,0.38c0.01,0.13,0.02,0.26,0.04,0.4c0.01,0.09,0.02,0.19,0.03,0.28c0.24,2.36,0.53,4.79,0.89,7.23
			l0.18,1.22c0.37,2.43,0.77,4.78,1.2,7.02c0,0.02,0.01,0.04,0.01,0.05c0.03,0.2,0.07,0.4,0.11,0.59c0.15,0.76,0.33,1.52,0.5,2.28
			l0.21,0.91l0.22,1.02c0.23,1.09,0.47,2.19,0.73,3.27c0.02,0.1,0.05,0.2,0.08,0.3c0,0.01,0.01,0.02,0.01,0.04
			c0.63,2.54,1.31,5.05,2.03,7.45c0.03,0.11,0.06,0.22,0.1,0.33c0.45,1.5,0.93,3.02,1.44,4.56c-5.34,13.19-4.08,28.27,3.53,40.8
			c4.34,7.15,10.47,13,17.69,16.97c21.67,33.98,75.88,55.58,141.01,55.58c65.4,0,119.72-21.75,141.25-55.94
			c13.95-8.12,23.01-23.27,23.17-39.72c0.06-6.09-1.06-12-3.33-17.61c0.22-0.65,0.43-1.3,0.63-1.95l0.24-0.74
			c0.23-0.69,0.46-1.38,0.66-2.07c0.01-0.04,0.03-0.09,0.04-0.13c0.7-2.33,1.37-4.8,2-7.34l0.02-0.07c0.04-0.14,0.07-0.27,0.11-0.41
			v0c0.61-2.49,1.17-5.01,1.67-7.51c0.03-0.14,0.06-0.29,0.08-0.43l0.06-0.34c0.4-2.08,0.78-4.29,1.16-6.75
			c0-0.03,0.01-0.07,0.02-0.1l0.16-1.02c0.02-0.12,0.04-0.24,0.05-0.37c0.26-1.82,0.47-3.66,0.67-5.5l0.04-0.34
			c0.06-0.49,0.12-0.98,0.17-1.47c0.02-0.17,0.03-0.34,0.05-0.52l0.01-0.06c0-0.01,0-0.04,0.01-0.07c0.2-2.1,0.36-4.32,0.5-6.79
			c0-0.06,0.01-0.12,0.01-0.18l0.08-1.59c0-0.07,0.01-0.13,0.01-0.2c0.12-2.8,0.18-5.16,0.18-7.42
			C340.48,147.26,335.98,124.96,327.1,103.96z M320.27,176.97C320.27,176.97,320.27,176.97,320.27,176.97l-0.08,1.67c0,0,0,0,0,0
			l0,0c-0.11,2.02-0.25,4.03-0.45,6.03c0,0,0,0,0,0.01l-0.01,0.14l-0.03,0.34c0,0,0,0.01,0,0.01l0,0c0,0,0,0.01,0,0.01
			c0,0,0,0,0,0.01c-0.05,0.54-0.14,1.07-0.2,1.61c-0.02,0.2-0.05,0.41-0.08,0.61c-0.16,1.47-0.33,2.94-0.54,4.39c0,0,0,0,0,0.01
			c0,0,0,0.01,0,0.01l-0.17,1.12c0,0,0,0,0,0.01c0,0,0,0.01,0,0.01c-0.32,2.06-0.66,4.11-1.06,6.14c0,0,0,0,0,0l-0.07,0.36
			c0,0,0,0.01,0,0.01c0,0,0,0.01,0,0.01c-0.15,0.76-0.34,1.5-0.5,2.25c-0.32,1.51-0.64,3.02-1,4.51c0,0,0,0.01,0,0.01l-0.06,0.22
			l-0.02,0.08c0,0,0,0.01-0.01,0.01c0,0,0,0.01,0,0.01c0,0,0,0.01,0,0.01c-0.55,2.21-1.14,4.4-1.8,6.57c0,0.01-0.01,0.01-0.01,0.02
			c0,0.01,0,0.02-0.01,0.03c0,0.01,0,0.02-0.01,0.03c0,0,0,0.01,0,0.01c0,0,0,0.01,0,0.01c-0.25,0.83-0.54,1.65-0.8,2.47
			c-0.29,0.91-0.61,1.81-0.91,2.71c-0.91,2.71-1.87,5.42-2.94,8.08c0.23-0.56,0.42-1.13,0.64-1.7l0,0l0,0
			c0.48,0.67,0.94,1.37,1.37,2.08c0.43,0.71,0.82,1.45,1.17,2.21c1.67,3.63,2.5,7.5,2.45,11.49c-0.02,1.41-0.15,2.81-0.38,4.18
			c-0.47,2.74-1.37,5.37-2.61,7.81c-0.62,1.22-1.33,2.39-2.12,3.5c-1.16,1.64-2.55,3.1-4.03,4.46c-1.52,1.4-3.15,2.68-4.94,3.69
			c-1.18,0.67-2.41,1.24-3.68,1.72c-4.99,10-14.09,19-26.2,26.6c-3.63,2.28-7.47,4.46-11.63,6.47c-6.93,3.34-14.61,6.23-22.83,8.71
			c-1.58,0.48-3.17,0.95-4.79,1.39c-18.2,4.96-38.98,7.77-61.27,7.76l0,0l0,0c-8.07-0.01-15.92-0.4-23.55-1.11
			c-6.9-0.64-13.61-1.54-20.07-2.71c-3.4-0.62-6.73-1.3-9.98-2.06c-29.3-6.8-52.67-19.04-65.79-34.45c-2.92-3.42-5.33-7-7.18-10.71
			c-3.03-1.05-5.86-2.63-8.37-4.66c-2.51-2.03-4.71-4.52-6.46-7.41c-0.31-0.51-0.55-1.05-0.83-1.57c-1.81-3.46-2.88-7.16-3.12-10.89
			c-0.07-1.07-0.07-2.15-0.01-3.22c0.19-3.21,0.98-6.38,2.37-9.34c0.35-0.75,0.75-1.48,1.18-2.18c0.43-0.71,0.89-1.39,1.38-2.06
			c0.09,0.22,0.17,0.45,0.25,0.67c-1.58-4-3.01-8.1-4.23-12.21c0,0,0,0,0,0c0,0,0-0.01,0-0.01c0,0,0,0,0-0.01c0,0,0,0,0-0.01
			c0-0.02-0.01-0.04-0.01-0.06c0,0,0,0,0,0c0,0,0,0,0-0.01c-0.29-0.96-0.52-1.95-0.79-2.92c-0.34-1.23-0.7-2.46-1.01-3.71
			c0-0.01,0-0.01,0-0.02l-0.02-0.08l0-0.02l-0.04-0.16c0,0,0-0.01-0.01-0.01c-0.19-0.78-0.35-1.56-0.52-2.35
			c-0.1-0.48-0.21-0.95-0.31-1.43c-0.22-1-0.46-1.99-0.66-3c0,0,0,0,0,0c0,0,0,0,0,0c0,0,0,0,0-0.01c0,0,0,0,0-0.01
			c0-0.01-0.02-0.15-0.03-0.16c0,0,0-0.01,0-0.01c-0.01-0.04,0-0.07-0.01-0.11c0,0,0,0,0,0l-0.01,0l0,0l0,0l0,0
			c0-0.01,0-0.03-0.01-0.04c0,0,0-0.01,0-0.01c0,0,0-0.01-0.01-0.02c-0.39-2.04-0.74-4.1-1.05-6.16l-0.17-1.13c0,0,0,0,0,0
			c-0.31-2.17-0.58-4.36-0.79-6.56c0,0,0,0,0-0.01l0-0.04c0-0.01,0-0.01,0-0.02c0,0,0-0.01,0-0.01l-0.04-0.45c0-0.02,0-0.04,0-0.07
			c0-0.01-0.01-0.02-0.01-0.03c-0.09-0.95-0.14-1.91-0.21-2.87c-0.07-1.03-0.17-2.06-0.22-3.1c0,0,0,0,0,0l-0.04-0.82l-0.04-0.86
			c0,0,0,0,0,0c-0.09-2.17-0.15-4.35-0.15-6.54c0-0.02,0-0.04,0-0.07c0-5.09,0.27-10.18,0.78-15.24c0.51-5.06,1.28-10.08,2.3-15.03
			c0.49-2.39,1.06-4.84,1.69-7.27c0.44-1.69,0.94-3.37,1.44-5.05c0.89-3.02,1.85-6.02,2.93-8.98c0.84-2.3,1.75-4.59,2.7-6.85
			s1.97-4.49,3.03-6.7c0.84-1.73,1.74-3.44,2.64-5.15C32.51,85.83,27.84,70.7,26.9,56.64c-0.1-1.53-0.17-3.05-0.18-4.56
			c-0.03-4.17,0.32-8.22,1.14-12.09c0.54-2.58,1.3-5.08,2.29-7.47c1.51-3.66,4.55-6.66,8.34-8.24c1.31-0.54,2.69-0.99,4.1-1.4
			c4.15-1.19,8.67-1.8,13.6-1.88c2.78-0.04,5.69,0.08,8.71,0.35c2.73,0.24,5.54,0.58,8.47,1.05c1.8,0.29,3.65,0.62,5.53,0.99
			c9.37,1.81,19.65,4.56,30.86,7.91c0.58,0.17,1.09,0.45,1.55,0.79c2.32-0.99,4.66-1.92,7.02-2.8c4.05-1.5,8.17-2.79,12.33-3.94
			c1.43-0.39,2.87-0.76,4.31-1.11c1.71-0.42,3.42-0.84,5.14-1.19c1.56-0.32,3.13-0.57,4.7-0.84c8.17-1.39,16.5-2.15,24.87-2.17
			c0.05,0,0.1,0,0.16,0c9.92-0.02,19.89,0.92,29.68,2.86c0,0,0,0,0,0c0,0,0,0,0,0c3.11,0.62,5.85,1.23,8.39,1.88c0,0,0.01,0,0.01,0
			c0,0,0.01,0,0.01,0c4.72,1.22,9.38,2.71,13.97,4.39c2.55,0.93,5.07,1.91,7.56,2.98c0.26-0.19,0.57-0.3,0.86-0.44
			c0.22-0.11,0.41-0.26,0.65-0.33c5.77-1.71,11.3-3.27,16.58-4.62c3.52-0.9,6.94-1.71,10.24-2.42c1.89-0.4,3.74-0.76,5.57-1.1
			c2.95-0.54,5.81-0.99,8.56-1.33c4.46-0.54,8.68-0.8,12.64-0.73c6.6,0.12,12.51,1.15,17.7,3.31c0.95,0.39,1.85,0.88,2.69,1.44
			c1.68,1.12,3.13,2.55,4.24,4.2c0.56,0.82,1.03,1.7,1.4,2.61c1.48,3.6,2.42,7.42,2.93,11.41c0.34,2.66,0.48,5.38,0.46,8.17
			c-0.03,4.17-0.44,8.47-1.14,12.82c-0.23,1.45-0.49,2.91-0.78,4.37c-0.58,2.92-1.27,5.86-2.05,8.8c-1.94,7.35-4.4,14.69-6.97,21.74
			c0.09,0.16,0.19,0.32,0.27,0.49c1.94,3.7,3.75,7.48,5.37,11.31c0.98,2.32,1.89,4.65,2.75,7c3.42,9.4,5.88,19.07,7.35,28.95
			c0.74,4.94,1.23,9.92,1.47,14.95c0.12,2.51,0.18,5.04,0.18,7.57C320.43,172.57,320.37,174.77,320.27,176.97z"/>
	</g>
	<path class="st5" d="M308.68,111.88c-1.62-3.84-3.42-7.61-5.37-11.31c-0.09-0.17-0.19-0.32-0.27-0.49
		c8.2-22.56,15.41-48.1,7.54-67.3c-1.5-3.67-4.54-6.67-8.33-8.25c-16.61-6.92-40.51-2.25-71.28,6.88c-0.56,0.17-1.06,0.44-1.51,0.76
		c-6.98-3-14.2-5.48-21.54-7.38c-0.01,0-0.01-0.01-0.02-0.01c-2.53-0.65-5.28-1.27-8.39-1.88c0,0,0,0-0.01,0
		c-19.69-3.89-40.08-3.79-59.41,0.15c-9.88,2.01-19.53,5.09-28.8,9.04c-0.46-0.34-0.97-0.62-1.55-0.79
		c-30.75-9.19-54.65-13.9-71.27-7.01c-3.79,1.57-6.83,4.57-8.34,8.24c-7.9,19.18-0.74,44.74,7.42,67.31
		c-0.91,1.7-1.81,3.41-2.64,5.15c-4.26,8.83-7.66,18.1-10.11,27.58c-0.63,2.43-1.19,4.87-1.69,7.27c-2.03,9.9-3.07,20.08-3.08,30.26
		c0,0.02,0,0.04,0,0.07c0,2.19,0.06,4.37,0.15,6.54c0,0,0,0,0,0l0.08,1.67c0,0,0,0,0,0c0.11,2,0.25,3.99,0.43,5.97
		c0,0.01,0.01,0.02,0.01,0.03c0,0.02,0,0.04,0,0.07l0.04,0.45c0,0,0,0,0,0.01c0,0.01,0,0.01,0,0.02l0,0.04c0,0,0,0.01,0,0.01
		c0.22,2.2,0.48,4.39,0.8,6.56c0,0,0,0,0,0l0.17,1.13c0.31,2.07,0.66,4.12,1.05,6.16c0,0.01,0.01,0.02,0.01,0.03
		c0,0.01,0,0.03,0.01,0.04l0.01,0c0,0,0,0,0,0c0.01,0.04,0,0.08,0.01,0.12c0,0.01,0.03,0.15,0.03,0.16c0,0,0,0.01,0,0.01
		c0,0,0,0.01,0,0.01c0.2,1.01,0.44,2,0.66,3c0.27,1.26,0.53,2.53,0.83,3.78c0,0,0,0.01,0.01,0.01l0.04,0.18l0.02,0.08
		c0,0.01,0,0.01,0,0.02c0.55,2.23,1.15,4.43,1.8,6.62c0,0,0,0.01,0,0.01c0.01,0.02,0.01,0.04,0.01,0.06c0,0,0,0,0,0.01
		c0,0,0,0,0,0.01c0,0,0,0.01,0,0.01c0,0,0,0,0,0c1.32,4.47,2.88,8.93,4.62,13.25c-0.23-0.57-0.42-1.15-0.65-1.72
		c-0.97,1.34-1.85,2.74-2.56,4.24c-3.71,7.9-3.12,17.26,1.59,25.02c3.5,5.77,8.78,9.96,14.83,12.07
		c14.85,29.68,65.12,50.99,126.58,51.04c61.54,0.06,111.88-21.22,126.72-50.92c10.16-3.8,17.64-14.06,17.77-25.35
		c0.04-3.99-0.78-7.85-2.45-11.48c-0.7-1.52-1.58-2.94-2.54-4.29c-0.22,0.56-0.42,1.14-0.64,1.7c1.43-3.55,2.7-7.17,3.85-10.79
		c0.26-0.83,0.55-1.64,0.8-2.47c0-0.01,0-0.02,0-0.03c0.01-0.02,0.01-0.03,0.02-0.05c0-0.01,0.01-0.01,0.01-0.02
		c0.65-2.17,1.25-4.36,1.8-6.57c0-0.01,0-0.01,0-0.02c0,0,0-0.01,0.01-0.01l0.08-0.31c0,0,0-0.01,0-0.01
		c0.55-2.23,1.05-4.49,1.5-6.76c0,0,0-0.01,0-0.01c0,0,0-0.01,0-0.01l0.07-0.36c0,0,0,0,0,0c0.4-2.03,0.74-4.08,1.06-6.14
		c0,0,0-0.01,0-0.01c0,0,0,0,0-0.01l0.17-1.12c0-0.01,0-0.01,0-0.01c0,0,0,0,0-0.01c0.24-1.66,0.43-3.33,0.61-5.01
		c0.06-0.54,0.14-1.07,0.2-1.61c0,0,0,0,0-0.01c0,0,0-0.01,0-0.01c0,0,0-0.01,0-0.01l0.03-0.34l0.01-0.14c0,0,0,0,0-0.01
		c0.19-2,0.34-4.01,0.45-6.03c0,0,0,0,0,0l0.08-1.66c0,0,0,0,0,0c0.1-2.2,0.16-4.4,0.17-6.62
		C320.45,150.07,316.5,130.4,308.68,111.88z"/>
	<g>
		<g>
			<path class="st73" d="M294.57,262.75c-13.27,28.86-63.7,50.32-123.92,50.26c-60.12-0.05-110.45-21.53-123.76-50.34
				c1.62,0.44,3.29,0.74,5.03,0.82c3.93,0.17,7.88-0.73,11.39-2.49c1.93-0.97,3.67-2.19,5.29-3.61c2.39-2.1,2.26-2.55,4.46,0.17
				c24.04,29.72,61.99,47.36,100.25,46.4c36.43-0.91,70.12-18.45,93.6-45.9c1.82-2.13,1.73-2.69,3.99-0.84
				c5.79,4.75,13.51,7.32,20.92,6.22C292.77,263.3,293.67,263.02,294.57,262.75z M146.96,133.54c1.78,2.94,1.65,6.75,0.21,10.08
				c-9.81,22.73-16.85,41.71-41.85,50.4c-5.25,1.82-11.47,2.23-16.48,4.56c-6.7,3.12-9.4,11.3-10.96,18.17
				c-2.83,12.48-0.65,24.44,6.79,34.83c7.25,10.12-9.51,19.73-16.67,9.72c-7.28-10.17-10.95-23.57-10.7-36.84
				c-2.59-0.95-4.65-2.99-5.23-6.1c0.07-0.13,0.15-0.26,0.21-0.41c0.04-0.09,0.1-0.17,0.13-0.26c0.42-1.33,0.85-2.65,1.31-3.96v0
				c0,0,0,0,0,0C68.45,171.83,104.42,141.71,146.96,133.54z M122.4,153.61c-0.18,0.13-0.36,0.26-0.53,0.39
				c0.06,0.11,0.13,0.21,0.19,0.32C122.17,154.08,122.29,153.85,122.4,153.61z M286.5,213.43
				C286.5,213.43,286.5,213.43,286.5,213.43c-11.82-33.32-37.13-59.2-68.44-72.43c-0.27,0.26-0.57,0.5-0.81,0.8
				c-0.09-0.43-0.17-0.85-0.26-1.28c-6.95-2.86-14.22-5.02-21.67-6.58c0.09,0.33,0.13,0.64,0.26,0.98
				c4.13,11.02,4.64,22.93,8.68,33.8c3.73,10.03,11.6,15.3,21.1,19.48c9.75,4.28,29.67,4.11,35.18,13.42
				c3.5,5.91,4.65,13.72,4.58,21.55c-2.18,8.31-4.41,16.89-2.48,25.16c2.14,9.16,16.49,9.25,18.61,0.02
				c1.2-5.23,2.21-11.86,2.64-18.99c0.51-1.38,1-2.74,1.35-4.06c0.86-3.28,1.43-6.66,1.86-10.06
				C286.9,214.64,286.71,214.03,286.5,213.43z"/>
			<g>
				<path class="st27" d="M124.67,216.02c-9.24-0.01-16.76,5.9-16.76,13.17c-0.01,7.27,7.5,13.19,16.74,13.2s16.76-5.9,16.76-13.17
					C141.42,221.95,133.91,216.03,124.67,216.02z"/>
				<path class="st27" d="M108.02,210.45l28.55,0.03c2.13,0,3.86-1.73,3.86-3.86c0-2.13-1.73-3.86-3.86-3.86l-28.55-0.03
					c-2.13,0-3.86,1.73-3.86,3.86C104.16,208.72,105.89,210.45,108.02,210.45z"/>
				<path class="st27" d="M215.6,242.47c9.24,0.01,16.76-5.9,16.77-13.17c0.01-7.27-7.5-13.19-16.74-13.2
					c-9.24-0.01-16.76,5.9-16.76,13.17S206.36,242.46,215.6,242.47z"/>
				<path class="st27" d="M203.73,210.53l28.55,0.03c2.13,0,3.86-1.73,3.86-3.86c0-2.13-1.72-3.86-3.86-3.86l-28.55-0.03
					c-2.13,0-3.86,1.73-3.86,3.86C199.87,208.8,201.6,210.53,203.73,210.53z"/>
				<path class="st27" d="M155.24,252.81l28.55,0.03c2.13,0,3.86-1.73,3.86-3.86c0-2.13-1.73-3.86-3.86-3.86l-28.55-0.03
					c-2.13,0-3.86,1.73-3.86,3.86C151.38,251.08,153.11,252.81,155.24,252.81z"/>
				<path class="st27" d="M148.39,53.26c2.23-0.32,3.78-2.38,3.46-4.6c-0.32-2.23-2.36-3.78-4.61-3.46l-16.3,2.31
					c-2.23,0.32-3.78,2.38-3.46,4.6c0.29,2.03,2.03,3.5,4.03,3.5c0.19,0,0.38-0.01,0.58-0.04L148.39,53.26z"/>
				<circle class="st27" cx="140.82" cy="72.5" r="9.31"/>
				<path class="st27" d="M207.09,47.57l-16.29-2.34c-2.23-0.31-4.29,1.23-4.61,3.45c-0.32,2.23,1.23,4.29,3.45,4.61l16.29,2.34
					c0.2,0.03,0.39,0.04,0.58,0.04c2,0,3.74-1.46,4.03-3.5C210.86,49.96,209.31,47.89,207.09,47.57z"/>
				<circle class="st27" cx="197.18" cy="72.55" r="9.31"/>
				<path class="st27" d="M183.56,84.66c-3.94-2.99-9.22-5.36-14.42-4.95c-5.22,0.41-10.21,3.1-13.91,6.45
					c-2.79,2.52-5.23,5.73-6.03,9.33c-0.52,2.34,0.22,4.68,1.66,6.62c1.16,1.57,2.79,2.54,4.28,3.78c1.48,1.23,2.75,2.67,3.76,4.26
					c1.15,1.8,1.93,3.79,2.9,5.68c0.96,1.85,2.13,3.97,3.97,5.2c0.87,0.58,1.8,1.01,2.85,1.19c2.24,0.39,4.57,0.06,6.36-1.31
					c1.51-1.15,2.56-2.77,3.44-4.37c1.15-2.09,1.99-4.34,3.28-6.37c1.01-1.59,2.29-3.03,3.76-4.25c1.5-1.24,3.12-2.21,4.29-3.78
					c1.44-1.93,2.18-4.27,1.67-6.62C190.46,91.18,187.17,87.39,183.56,84.66z M166.23,91.85c2.26-2.25,5.91-2.25,8.16,0.01
					c0.68,0.68,0.67,1.77,0,2.45l-1.43,1.43c-1.47,1.46-3.84,1.46-5.3,0l-1.43-1.43C165.56,93.62,165.56,92.52,166.23,91.85z
					 M175.31,105.06c-0.05,0.01-0.1,0.01-0.15,0.01c-0.33,1.55-0.82,3.16-1.54,4.43c-0.01,0.02-0.02,0.04-0.03,0.05
					c-0.11,0.19-0.22,0.37-0.34,0.54c-0.05,0.08-0.11,0.15-0.17,0.22c-0.06,0.08-0.12,0.16-0.19,0.23
					c-0.07,0.08-0.15,0.16-0.22,0.24c-0.05,0.06-0.11,0.11-0.17,0.16c-0.08,0.07-0.16,0.14-0.24,0.2c-0.06,0.05-0.12,0.09-0.18,0.13
					c-0.08,0.05-0.16,0.11-0.24,0.16c-0.07,0.04-0.15,0.07-0.23,0.11c-0.07,0.03-0.15,0.07-0.22,0.1c-0.13,0.05-0.26,0.08-0.39,0.11
					c-0.03,0.01-0.06,0.02-0.09,0.02c0,0,0,0,0,0c-0.13,0.02-0.26,0.04-0.4,0.04c-0.19,0.01-0.36-0.01-0.54-0.03
					c-0.07-0.01-0.13-0.03-0.2-0.05c-0.1-0.02-0.21-0.05-0.31-0.08c-0.08-0.03-0.16-0.07-0.25-0.1c-0.08-0.04-0.16-0.07-0.24-0.11
					c-0.09-0.05-0.17-0.1-0.25-0.16c-0.07-0.05-0.14-0.1-0.21-0.15c-0.08-0.06-0.16-0.13-0.24-0.2c-0.08-0.07-0.15-0.15-0.23-0.22
					c-0.06-0.07-0.13-0.13-0.19-0.2c-0.14-0.16-0.28-0.33-0.41-0.52c-0.01-0.01-0.02-0.03-0.03-0.04c-0.89-1.26-1.52-2.99-1.97-4.64
					c-0.3-0.07-0.6-0.18-0.9-0.33c-3.07-1.53-3.09-4.77-3.09-4.9c0-0.49,0.41-0.89,0.9-0.89c0.49,0,0.89,0.4,0.89,0.9
					c0,0.11,0.05,2.27,2.1,3.29c0.3,0.15,0.61,0.22,0.93,0.25c1.82,0.07,3.72-1.5,3.73-1.52c0.18-0.15,0.41-0.21,0.63-0.2
					c0.22-0.02,0.44,0.04,0.62,0.18c0.01,0.01,1.31,1,2.72,1.21c0.14,0.02,0.27,0.03,0.41,0.03c0,0,0.01,0,0.01,0
					c0.19,0.01,0.39,0,0.58-0.04c1.3-0.23,2.26-1.8,2.35-3.13c0.03-0.49,0.46-0.87,0.95-0.83c0.49,0.03,0.87,0.46,0.83,0.95
					C179,102.32,177.53,104.66,175.31,105.06z"/>
				<path class="st27" d="M308.68,111.88c-1.62-3.84-3.42-7.61-5.37-11.31c-0.09-0.17-0.19-0.32-0.27-0.49
					c8.2-22.56,15.41-48.1,7.54-67.3c-1.5-3.67-4.54-6.67-8.33-8.25c-16.61-6.92-40.51-2.25-71.28,6.88
					c-0.56,0.17-1.06,0.44-1.51,0.76c-6.98-3-14.2-5.48-21.54-7.38c-0.01,0-0.01-0.01-0.02-0.01c-2.53-0.65-5.28-1.27-8.39-1.88
					c0,0,0,0-0.01,0c-19.69-3.89-40.08-3.79-59.41,0.15c-9.88,2.01-19.53,5.09-28.8,9.04c-0.46-0.34-0.97-0.62-1.55-0.79
					c-30.75-9.19-54.65-13.9-71.27-7.01c-3.79,1.57-6.83,4.57-8.34,8.24c-7.9,19.18-0.74,44.74,7.42,67.31
					c-0.91,1.7-1.81,3.41-2.64,5.15c-4.26,8.83-7.66,18.1-10.11,27.58c-0.63,2.43-1.19,4.87-1.69,7.27
					c-2.03,9.9-3.07,20.08-3.08,30.26c0,0.02,0,0.04,0,0.07c0,2.19,0.06,4.37,0.15,6.54c0,0,0,0,0,0l0.08,1.67c0,0,0,0,0,0
					c0.11,2,0.25,3.99,0.43,5.97c0,0.01,0.01,0.02,0.01,0.03c0,0.02,0,0.04,0,0.07l0.04,0.45c0,0,0,0,0,0.01c0,0.01,0,0.01,0,0.02
					l0,0.04c0,0,0,0.01,0,0.01c0.22,2.2,0.48,4.39,0.8,6.56c0,0,0,0,0,0l0.17,1.13c0.31,2.07,0.66,4.12,1.05,6.16
					c0,0.01,0.01,0.02,0.01,0.03c0,0.01,0,0.03,0.01,0.04l0.01,0c0,0,0,0,0,0c0.01,0.04,0,0.08,0.01,0.12
					c0,0.01,0.03,0.15,0.03,0.16c0,0,0,0.01,0,0.01c0,0,0,0.01,0,0.01c0.2,1.01,0.44,2,0.66,3c0.27,1.26,0.53,2.53,0.83,3.78
					c0,0,0,0.01,0.01,0.01l0.04,0.18l0.02,0.08c0,0.01,0,0.01,0,0.02c0.55,2.23,1.15,4.43,1.8,6.62c0,0,0,0.01,0,0.01
					c0.01,0.02,0.01,0.04,0.01,0.06c0,0,0,0,0,0.01c0,0,0,0,0,0.01c0,0,0,0.01,0,0.01c0,0,0,0,0,0c1.32,4.47,2.88,8.93,4.62,13.25
					c-0.23-0.57-0.42-1.15-0.65-1.72c-0.97,1.34-1.85,2.74-2.56,4.24c-3.71,7.9-3.12,17.26,1.59,25.02
					c3.5,5.77,8.78,9.96,14.83,12.07c14.85,29.68,65.12,50.99,126.58,51.04c61.54,0.06,111.88-21.22,126.72-50.92
					c10.16-3.8,17.64-14.06,17.77-25.35c0.04-3.99-0.78-7.85-2.45-11.48c-0.7-1.52-1.58-2.94-2.54-4.29
					c-0.22,0.56-0.42,1.14-0.64,1.7c1.43-3.55,2.7-7.17,3.85-10.79c0.26-0.83,0.55-1.64,0.8-2.47c0-0.01,0-0.02,0-0.03
					c0.01-0.02,0.01-0.03,0.02-0.05c0-0.01,0.01-0.01,0.01-0.02c0.65-2.17,1.25-4.36,1.8-6.57c0-0.01,0-0.01,0-0.02
					c0,0,0-0.01,0.01-0.01l0.08-0.31c0,0,0-0.01,0-0.01c0.55-2.23,1.05-4.49,1.5-6.76c0,0,0-0.01,0-0.01c0,0,0-0.01,0-0.01
					l0.07-0.36c0,0,0,0,0,0c0.4-2.03,0.74-4.08,1.06-6.14c0,0,0-0.01,0-0.01c0,0,0,0,0-0.01l0.17-1.12c0-0.01,0-0.01,0-0.01
					c0,0,0,0,0-0.01c0.24-1.66,0.43-3.33,0.61-5.01c0.06-0.54,0.14-1.07,0.2-1.61c0,0,0,0,0-0.01c0,0,0-0.01,0-0.01
					c0,0,0-0.01,0-0.01l0.03-0.34l0.01-0.14c0,0,0,0,0-0.01c0.19-2,0.34-4.01,0.45-6.03c0,0,0,0,0,0l0.08-1.66c0,0,0,0,0,0
					c0.1-2.2,0.16-4.4,0.17-6.62C320.45,150.07,316.5,130.4,308.68,111.88z M275.75,46.36c2.96,0,5.59,0.39,7.78,1.3
					c0.57,0.24,1.01,0.66,1.22,1.17c2.53,6.17,1.22,14.48-1.23,22.8c-0.67-0.77-1.33-1.55-2.01-2.3
					c-6.45-7.11-13.61-13.63-21.29-19.38c-0.44-0.33-0.9-0.63-1.35-0.96C264.98,47.44,270.82,46.35,275.75,46.36z M55.96,48.62
					c0.21-0.5,0.65-0.93,1.22-1.16c2.19-0.9,4.82-1.29,7.78-1.29c4.93,0,10.75,1.1,16.84,2.65c-2.38,1.74-4.72,3.54-6.99,5.42
					c-6.36,5.24-12.24,11.03-17.66,17.22C54.71,63.12,53.41,54.79,55.96,48.62z M35.85,249.76c-3.41-5.63-3.85-12.1-1.2-17.74
					c2.8-5.96,8.74-10.28,15.5-11.28c1.51-0.22,2.84-1.09,3.65-2.37c0.8-1.27,1.01-2.82,0.57-4.27c-0.12-0.39-0.21-0.79-0.33-1.18
					c1.39-3.88,3.03-7.61,4.78-11.28c0.06,0.22,0.07,0.44,0.18,0.64c0.68,1.34,2.04,2.12,3.44,2.12c0.59,0,1.18-0.13,1.74-0.42
					c2.55-1.29,5.04-2.68,7.46-4.17c-0.44,5.17-1.19,10.41-1.97,15.79c-0.66,4.55-1.35,9.25-1.81,13.92
					c-0.5,5-0.84,10.89,0.48,16.74c0.45,2,1.14,3.85,1.94,5.63c-1.54,0.23-2.67,1.18-3.58,2.01l-0.65,0.58
					c-1.47,1.29-2.94,2.3-4.47,3.06c-3,1.5-6.27,2.23-9.5,2.09C45.49,259.35,39.42,255.66,35.85,249.76z M94.9,193.98
					c2.08,0.5,4.23,0.75,6.43,0.75c7.18,0.01,14.97-2.64,23.27-7.9c3.05-1.93,6.94-4.64,10.03-8.41c3.61-4.41,6.07-10.19,7.53-17.65
					c0.62-3.17,1.02-6.36,1.4-9.44c0.35-2.74,0.67-5.32,1.14-7.91c0.37-2.04,0.83-4.16,1.78-5.88c1.54-2.8,4.71-4.77,7.9-4.92
					c0.59-0.03,1.13-0.21,1.62-0.47c-2.85,0.33-5.68,0.76-8.48,1.28c7.42-1.39,15.01-2.19,22.75-2.19c4.77,0,9.48,0.38,14.15,0.92
					c0.49,0.27,1.04,0.46,1.63,0.48c3.19,0.15,6.37,2.14,7.9,4.94c0.94,1.72,1.41,3.84,1.77,5.88c0.46,2.59,0.78,5.17,1.12,7.9
					c0.38,3.09,0.78,6.28,1.39,9.46c1.44,7.47,3.9,13.25,7.5,17.66c3.08,3.78,6.97,6.49,10.01,8.43c8.28,5.28,16.08,7.94,23.26,7.94
					c2.2,0,4.35-0.24,6.43-0.74c2.07-0.5,3.35-2.58,2.86-4.65c-0.5-2.07-2.57-3.34-4.65-2.86c-6.75,1.62-14.75-0.47-23.74-6.2
					c-2.56-1.63-5.8-3.87-8.18-6.8c-2.78-3.4-4.7-8.06-5.9-14.25c-0.57-2.92-0.93-5.84-1.31-8.94c-0.33-2.71-0.68-5.52-1.18-8.3
					c-0.39-2.19-0.92-4.49-1.89-6.73c33.2,8.73,61.63,31.05,77.85,61.71c-3.82-1.96-7.46-4.21-10.95-6.62
					c0.04-2.28,0.15-4.55,0.42-6.83c0.25-2.12-1.27-4.03-3.39-4.28c-2.09-0.25-4.03,1.27-4.28,3.39c-0.08,0.7-0.12,1.39-0.18,2.09
					c-10.3-8.67-18.37-19.1-22.8-29.97c-0.8-1.97-3.05-2.92-5.03-2.12c-1.97,0.8-2.92,3.06-2.12,5.03
					c5.56,13.63,16.19,26.62,29.7,36.73c0.23,7.55,1.28,15.04,2.33,22.36c0.64,4.47,1.3,9.09,1.75,13.59
					c0.43,4.37,0.73,9.49-0.36,14.27c-0.75,3.28-2.47,6.36-4.3,9.62c-0.67,1.19-1.33,2.38-1.96,3.59c-0.64,1.25-0.48,2.65,0.2,3.76
					c-22.99,23.69-53.57,37.59-85.11,38.39c-33.78,0.85-68.05-13.73-91.37-38.44c0.75-1.13,0.93-2.59,0.27-3.88
					c-0.62-1.2-1.28-2.39-1.94-3.58c-1.82-3.27-3.54-6.36-4.29-9.64c-1.07-4.77-0.77-9.89-0.33-14.27c0.45-4.5,1.12-9.12,1.77-13.58
					c1.06-7.32,2.13-14.8,2.37-22.35c13.52-10.09,24.19-23.06,29.77-36.68c0.81-1.97-0.14-4.23-2.11-5.03
					c-1.98-0.81-4.23,0.14-5.03,2.11c-4.45,10.87-12.55,21.29-22.86,29.93c-0.06-0.7-0.09-1.39-0.17-2.09
					c-0.24-2.12-2.19-3.65-4.27-3.4c-2.12,0.24-3.64,2.16-3.4,4.27c0.26,2.28,0.37,4.55,0.4,6.83c-3.44,2.36-7.02,4.56-10.78,6.49
					c16.25-30.58,44.62-52.78,77.77-61.47c-0.98,2.24-1.51,4.54-1.9,6.73c-0.5,2.79-0.85,5.6-1.2,8.31
					c-0.39,3.09-0.76,6.01-1.32,8.92c-1.21,6.18-3.14,10.84-5.93,14.24c-2.4,2.92-5.64,5.16-8.19,6.79
					c-9.01,5.71-17,7.79-23.75,6.16c-2.06-0.48-4.16,0.78-4.66,2.85C91.55,191.4,92.83,193.48,94.9,193.98z M170.66,309.16
					c-54.15-0.05-100.18-17.59-116.74-41.86c3.82-0.15,7.62-1.09,11.13-2.85c1.96-0.98,3.8-2.21,5.61-3.74
					c24.05,29.25,61.9,47.11,99.65,47.15c1.03,0,2.07-0.01,3.1-0.04c36.2-0.91,71.17-17.96,96.06-46.81
					c5.32,4.02,11.73,6.28,18.02,6.49C270.88,291.74,224.82,309.2,170.66,309.16z M291.25,259.62c-6.01,0.9-12.7-1.11-17.91-5.38
					c-0.83-0.68-2.02-1.6-3.52-1.88c0.85-1.86,1.59-3.81,2.07-5.91c1.33-5.86,1.01-11.75,0.51-16.74
					c-0.46-4.67-1.13-9.37-1.79-13.92c-0.77-5.39-1.52-10.62-1.95-15.8c2.42,1.49,4.91,2.89,7.46,4.18
					c0.56,0.28,1.15,0.42,1.74,0.42c1.41,0,2.77-0.77,3.45-2.11c0.13-0.25,0.15-0.51,0.21-0.76c1.83,3.8,3.54,7.68,4.97,11.71
					c-0.09-0.25-0.2-0.49-0.3-0.74c-0.2,0.92-0.39,1.87-0.59,2.77c-0.91,3.95,1.47,5.08,2.53,5.38l3.54,0.98l0.16-0.47
					c5.94,1.29,11.29,5.46,13.83,10.99c1.19,2.59,1.78,5.34,1.75,8.17C307.32,249.89,300.22,258.29,291.25,259.62z M312.56,176.63
					C312.56,176.63,312.56,176.63,312.56,176.63C312.56,176.63,312.56,176.63,312.56,176.63l-0.08,1.57c0,0,0,0,0,0c0,0,0,0,0,0
					c-0.11,1.92-0.24,3.83-0.42,5.73c0,0,0,0.01,0,0.01c0,0.02-0.04,0.42-0.04,0.44c0,0,0,0,0,0c0,0.01,0,0.02,0,0.02
					c-0.05,0.51-0.13,1.02-0.19,1.53c-0.18,1.59-0.36,3.17-0.58,4.74l-0.17,1.1c0,0,0,0,0,0c-0.3,1.96-0.63,3.91-1.01,5.84
					c0,0,0,0,0,0.01c0,0,0,0,0,0.01L310,198c0,0,0,0,0,0c-0.43,2.15-0.9,4.28-1.42,6.39c-0.01,0.03-0.01,0.06-0.01,0.09
					c-0.01,0.03-0.03,0.07-0.04,0.1c0,0-0.02,0.1-0.02,0.1c0,0.01,0,0.01,0,0.02c0,0.01-0.01,0.02-0.01,0.03
					c-0.52,2.09-1.08,4.17-1.7,6.22c0,0.01,0,0.01,0,0.02c0,0,0,0.01,0,0.01c0,0.01-0.01,0.03-0.01,0.03c0,0.01,0,0.01,0,0.02
					c0,0.01,0,0.01-0.01,0.02c-0.73,2.44-1.55,4.87-2.41,7.28c-2.88-2.19-6.16-3.81-9.66-4.74c-0.3-0.91-0.59-1.83-0.91-2.74
					c0,0,0-0.01,0-0.01c-5.98-16.87-15.26-31.92-26.89-44.61c1.15-4.32,1.9-9.5,2.14-15.82l9.66,7.87
					c-0.61-12.33-0.82-24.49-13.24-41.97l12.66-0.86c-8.92-14.54-20.37-27.07-34.25-37.69c-6.51-4.99-15.89-4.87-21.57,1.04
					c-3.84,4.01-3.96,8.38,0.43,13.21c4.95,5.44,9.29,11.44,11.91,18.31c4.22,11.07,6.28,22.11,4.82,33.12
					c-20.33-12.68-44.14-19.91-69.16-19.93c-25.04-0.02-48.86,7.15-69.2,19.78c-1.44-11,0.65-22.03,4.88-33.08
					c2.63-6.87,6.99-12.86,11.95-18.29c4.4-4.82,4.29-9.2,0.45-13.21c-5.67-5.93-15.05-6.06-21.57-1.08
					c-13.89,10.6-25.37,23.11-34.31,37.63l12.66,0.88c-12.45,17.45-12.68,29.61-13.32,41.94l9.67-7.86
					c0.22,6.31,0.97,11.49,2.11,15.81c-11.78,12.81-21.16,28.04-27.17,45.14c0,0,0,0.01,0,0.01c-0.25,0.71-0.47,1.43-0.71,2.14
					c-3.52,0.96-6.83,2.54-9.71,4.7c-0.86-2.41-1.65-4.85-2.38-7.29c0-0.01-0.01-0.02-0.01-0.03c0-0.01,0-0.03-0.01-0.04
					c-0.61-2.07-1.18-4.17-1.7-6.28c0-0.01-0.01-0.01-0.01-0.02l-0.04-0.16l-0.02-0.07c0-0.01,0-0.01,0-0.02
					c-0.29-1.18-0.53-2.39-0.79-3.59c-0.21-0.95-0.44-1.89-0.63-2.84c0-0.01-0.01-0.02-0.01-0.03c0-0.01,0-0.03,0-0.04
					c0-0.03-0.03-0.17-0.05-0.26c0,0,0-0.01,0-0.01c-0.37-1.94-0.7-3.89-0.99-5.85l-0.16-1.08c0,0,0,0,0,0
					c-0.29-2.08-0.56-4.17-0.76-6.27c0-0.04-0.02-0.08-0.02-0.12c0-0.05,0-0.1,0-0.16c0-0.01-0.01-0.2-0.01-0.22
					c0-0.01,0-0.02-0.01-0.03c0-0.01,0-0.01,0-0.02c-0.18-1.88-0.31-3.77-0.41-5.67c0,0,0,0,0,0c0,0,0,0,0,0l-0.08-1.58c0,0,0,0,0,0
					c0,0,0,0,0-0.01c-0.09-2.08-0.15-4.15-0.15-6.25c0-0.05,0-0.09,0-0.14c0.02-9.62,1-19.25,2.92-28.6c0.47-2.27,1-4.59,1.6-6.89
					c2.32-8.98,5.54-17.78,9.58-26.15c3.97-8.23,8.78-16.13,14.28-23.46c6.83-9.12,14.76-17.42,23.57-24.68
					c8.85-7.29,18.57-13.5,28.88-18.46c10.51-5.05,21.63-8.8,33.06-11.12c18.33-3.73,37.68-3.83,56.37-0.14c0,0,0,0,0,0
					c2.96,0.59,5.57,1.17,7.96,1.79c0,0,0.01,0,0.01,0c8.98,2.32,17.78,5.55,26.13,9.59c8.23,3.97,16.12,8.77,23.46,14.28
					c7.29,5.46,14.09,11.65,20.2,18.39c4.6,5.07,8.86,10.51,12.67,16.15c0,0,0.01,0,0.01,0.01c1.27,1.89,2.5,3.81,3.69,5.77
					c0,0,0,0.01,0.01,0.01c3.57,5.89,6.74,12.09,9.41,18.43c7.41,17.57,11.16,36.23,11.15,55.47
					C312.72,172.45,312.65,174.54,312.56,176.63z"/>
			</g>
		</g>
	</g>
</g>
</svg>
