<?xml version="1.0" encoding="utf-8"?>
<!-- Generator: Adobe Illustrator 25.4.1, SVG Export Plug-In . SVG Version: 6.00 Build 0)  -->
<svg version="1.1" id="Capa_1" xmlns="http://www.w3.org/2000/svg" xmlns:xlink="http://www.w3.org/1999/xlink" x="0px" y="0px"
	 viewBox="0 0 68.4 63.48" style="enable-background:new 0 0 68.4 63.48;" xml:space="preserve">
<style type="text/css">
	.st0{fill:#577D1E;}
	.st1{clip-path:url(#SVGID_00000118386208886364321050000017031880147573728418_);}
	.st2{fill:#FEF4EE;}
	.st3{opacity:0.1;fill:#577D1E;}
	.st4{opacity:0.6;fill:url(#SVGID_00000101809924923299933300000007096465102519626408_);}
	.st5{fill:#FFFFFF;}
	.st6{opacity:0.2;fill:#A4C96A;}
	.st7{fill:#FAAF78;}
	.st8{opacity:0.4;fill:#FF7A8E;}
	.st9{opacity:0.5;}
	.st10{fill:#FF7A8E;}
	.st11{opacity:0.2118;}
	.st12{fill:#6B1952;}
	.st13{fill:#F77D48;}
	.st14{fill:#A33C34;}
	.st15{opacity:0.2;}
	.st16{fill:#39005E;}
	.st17{opacity:0.6;}
	.st18{fill-rule:evenodd;clip-rule:evenodd;fill:#6B1952;}
	.st19{fill:#FF6294;}
	.st20{fill-rule:evenodd;clip-rule:evenodd;fill:#FFFFFF;}
	.st21{opacity:0.35;}
	.st22{fill:#6B184E;}
	.st23{opacity:0.5;fill:#FFFFFF;}
	.st24{opacity:0.4;}
	.st25{fill:none;stroke:#F49257;stroke-miterlimit:10;}
	.st26{fill:#95224C;stroke:#95224C;stroke-width:2;stroke-linecap:round;stroke-linejoin:round;stroke-miterlimit:10;}
	.st27{fill:#95224C;}
	.st28{fill:#B14534;stroke:#B14534;stroke-width:3;stroke-miterlimit:10;}
	.st29{fill:#F49257;stroke:#F49257;stroke-width:3;stroke-linecap:round;stroke-linejoin:round;stroke-miterlimit:10;}
	.st30{fill:#B14534;}
	.st31{fill:none;stroke:#B14534;stroke-width:3;stroke-miterlimit:10;}
	.st32{fill:#FFFFFF;stroke:#F49257;stroke-width:3;stroke-miterlimit:10;}
	.st33{fill:#FFFFFF;stroke:#B14534;stroke-width:3;stroke-miterlimit:10;}
	.st34{fill:none;stroke:#F49257;stroke-width:3;stroke-linecap:round;stroke-linejoin:round;stroke-miterlimit:10;}
	.st35{fill:#F49257;stroke:#F49257;stroke-miterlimit:10;}
	.st36{fill:#7B933C;}
	.st37{clip-path:url(#SVGID_00000078039540377501999480000007524607112410895014_);fill:#B14534;}
	.st38{fill:#F49257;}
	.st39{fill:none;stroke:#F49257;stroke-width:3;stroke-miterlimit:10;}
	.st40{fill:none;stroke:#95224C;stroke-width:3;stroke-linecap:round;stroke-miterlimit:10;}
	.st41{fill:none;stroke:#B14534;stroke-width:3;stroke-linecap:round;stroke-miterlimit:10;}
	.st42{opacity:0.5;fill:#FAAF78;stroke:#F49257;stroke-width:3;stroke-miterlimit:10;}
	.st43{clip-path:url(#SVGID_00000139977350332059944320000009682149462542433930_);fill:#B14534;}
	.st44{fill:#CA5E72;}
	.st45{fill:#F49257;stroke:#FAAF78;stroke-width:2;stroke-miterlimit:10;}
	.st46{fill:#7B933C;stroke:#A4C96A;stroke-width:2;stroke-miterlimit:10;}
	.st47{fill:#B14534;stroke:#D86F67;stroke-width:2;stroke-miterlimit:10;}
	.st48{opacity:0.5;fill:#F49257;}
	.st49{opacity:0.5;fill:#FAAF78;}
	.st50{clip-path:url(#SVGID_00000036239292548555273400000013155106124059269265_);}
	.st51{opacity:0.5;fill:#CA5E72;}
	.st52{clip-path:url(#SVGID_00000088100899150876041740000000967861401529783200_);}
	.st53{clip-path:url(#SVGID_00000083781737259851994220000015716611343253110153_);}
	.st54{clip-path:url(#SVGID_00000179643935919146793200000016914690196182259897_);}
	.st55{clip-path:url(#SVGID_00000183207986156041162340000006446173877298977213_);}
	.st56{clip-path:url(#SVGID_00000145023820999195111710000012119103885409623206_);}
	.st57{fill:#09487E;}
	.st58{opacity:0.5;fill:#09487E;}
	.st59{clip-path:url(#SVGID_00000085961663480735597530000017514070700833142207_);}
	.st60{clip-path:url(#SVGID_00000060032498529542898130000003301497874072299404_);}
	.st61{clip-path:url(#SVGID_00000147198557502457964960000010644224590044708022_);}
	.st62{fill:url(#SVGID_00000022528269370887449870000016300771062211187119_);}
	.st63{clip-path:url(#SVGID_00000134245069122422563500000014140760866876554898_);}
	.st64{fill:#7B933C;stroke:#FFFFFF;stroke-width:0.25;stroke-miterlimit:10;}
	.st65{clip-path:url(#SVGID_00000041998530021108161220000010224205012582474145_);}
	.st66{opacity:0.5;fill:#95224C;}
	.st67{clip-path:url(#SVGID_00000029031989095365005310000000954523662833727662_);}
	.st68{clip-path:url(#SVGID_00000043458704962810333980000005992773491516150660_);}
	.st69{clip-path:url(#SVGID_00000126318251969945886940000007403142941792464060_);}
	.st70{fill:url(#SVGID_00000042711992100437089610000007907437959609386383_);}
	.st71{clip-path:url(#SVGID_00000016055508692408422320000002117892740806262462_);}
	.st72{opacity:0.5;fill:#A4C96A;}
	.st73{fill:#A4C96A;}
	.st74{opacity:0.35;fill:#95224C;}
	.st75{fill:#DFDFDF;}
	.st76{clip-path:url(#SVGID_00000003103678415927276920000011535284367702602935_);fill:#B14534;}
	.st77{clip-path:url(#SVGID_00000020363436471845659590000015723107974820762299_);}
	.st78{clip-path:url(#SVGID_00000068653421257337662910000017258115358905997753_);}
	.st79{opacity:0.35;fill:#F49257;}
	.st80{opacity:0.7;fill:#F49257;}
	.st81{opacity:0.35;fill:#B14534;}
	.st82{fill:none;stroke:#0000FF;stroke-width:4;stroke-linecap:round;stroke-linejoin:round;stroke-miterlimit:10;}
	.st83{fill:none;stroke:#0000FF;stroke-width:4;stroke-miterlimit:10;}
	.st84{fill:#0000FF;}
	.st85{fill:none;stroke:#0000FF;stroke-width:2;stroke-miterlimit:10;}
	.st86{fill:none;stroke:#0000FF;stroke-width:2;stroke-linecap:round;stroke-linejoin:round;stroke-miterlimit:10;}
	.st87{fill:none;stroke:#0000FF;stroke-miterlimit:10;}
	.st88{fill:#3E5902;}
	.st89{fill:#FFFFFD;stroke:#993300;stroke-width:3;stroke-miterlimit:10;}
	.st90{fill:#FAAF78;stroke:#993300;stroke-width:3;stroke-miterlimit:10;}
	.st91{fill:#FFFFFD;}
	.st92{fill:#FBD4BD;}
	.st93{fill:#F7AF84;}
	.st94{fill:#993300;stroke:#993300;stroke-miterlimit:10;}
	.st95{fill:none;stroke:#FBD4BD;stroke-width:3;}
	.st96{opacity:0.8;}
	.st97{fill:url(#SVGID_00000183235207736804135820000004304167147627435447_);}
	.st98{opacity:0.7;}
	.st99{fill:url(#SVGID_00000037671971432617061280000018095864388749531827_);}
	.st100{opacity:0.3;fill:url(#);}
	.st101{clip-path:url(#SVGID_00000021081761122501020880000000558123840285845632_);}
	.st102{fill:#FFFFFF;stroke:#A4C96A;stroke-width:25;stroke-linecap:round;stroke-linejoin:round;stroke-miterlimit:10;}
	.st103{opacity:0.6;fill:url(#SVGID_00000034768266156459126040000016400155331648269494_);}
	.st104{opacity:0.35;fill:#7B933C;}
	.st105{clip-path:url(#SVGID_00000018218068672531025890000000767231455111016893_);}
	.st106{opacity:0.05;}
	.st107{opacity:0.75;fill:url(#);}
	.st108{fill:#D1E4B4;}
	.st109{fill:#F0B4BB;}
	.st110{fill:#EA402B;}
	.st111{fill:#FAC5C4;}
	.st112{fill:#A92100;}
	.st113{fill:#E7B83F;}
	.st114{fill:#F88093;}
	.st115{fill:none;stroke:#F0B4BB;stroke-width:2.8898;stroke-miterlimit:10;}
	.st116{fill:none;stroke:#EA402B;stroke-width:2.8898;stroke-miterlimit:10;}
	.st117{fill:none;stroke:#A92100;stroke-width:2.8898;stroke-miterlimit:10;}
	.st118{fill:none;stroke:#E7B83F;stroke-width:2.8898;stroke-miterlimit:10;}
	.st119{fill:none;stroke:#F88093;stroke-width:2.8898;stroke-miterlimit:10;}
	.st120{fill:#044348;}
	.st121{fill:#7E1126;}
</style>
<path class="st5" d="M64.56,48.96c1.2,0,2.14,0.5,2.82,1.5c0.68,1,1.02,2.42,1.02,4.26c0,5.04-3.08,7.56-9.24,7.56
	c-4,0-6.92-1.06-8.76-3.18s-3-4.58-3.48-7.38l-0.12-1.44c-1.92,4.24-4.62,7.5-8.1,9.78c-3.48,2.28-7.58,3.42-12.3,3.42
	c-3.6,0-7-0.74-10.2-2.22c-3.2-1.48-6-3.58-8.4-6.3c-2.4-2.72-4.3-6.02-5.7-9.9S0,36.84,0,32.04c0-4.8,0.74-9.18,2.22-13.14
	s3.48-7.34,6-10.14s5.44-4.96,8.76-6.48C20.3,0.76,23.8,0,27.48,0c4.96,0,8.98,1.1,12.06,3.3c3.08,2.2,5.5,5.18,7.26,8.94v-4.8
	c0-1.84,0.68-3.34,2.04-4.5C50.2,1.78,52,1.2,54.24,1.2c2.24,0,4.02,0.58,5.34,1.74c1.32,1.16,1.98,2.66,1.98,4.5v36.12
	C61.56,47.16,62.56,48.96,64.56,48.96z M37.14,48.9c1.96-0.84,3.66-2.04,5.1-3.6c1.44-1.56,2.58-3.46,3.42-5.7
	c0.84-2.24,1.26-4.76,1.26-7.56c0-5.6-1.46-10.1-4.38-13.5c-2.92-3.4-6.78-5.1-11.58-5.1c-4.96,0-8.84,1.72-11.64,5.16
	c-2.8,3.44-4.2,7.92-4.2,13.44c0,2.8,0.4,5.3,1.2,7.5c0.8,2.2,1.92,4.1,3.36,5.7c1.44,1.6,3.12,2.82,5.04,3.66
	c1.92,0.84,4,1.26,6.24,1.26C33.12,50.16,35.18,49.74,37.14,48.9z"/>
</svg>
