<?xml version="1.0" encoding="utf-8"?>
<!-- Generator: Adobe Illustrator 25.4.1, SVG Export Plug-In . SVG Version: 6.00 Build 0)  -->
<svg version="1.1" id="Capa_1" xmlns="http://www.w3.org/2000/svg" xmlns:xlink="http://www.w3.org/1999/xlink" x="0px" y="0px"
	 viewBox="0 0 18.55 18" style="enable-background:new 0 0 18.55 18;" xml:space="preserve">
<style type="text/css">
	.st0{fill:#577D1E;}
	.st1{clip-path:url(#SVGID_00000100356003973200772910000004462075501591628957_);}
	.st2{fill:#FEF4EE;}
	.st3{opacity:0.1;fill:#577D1E;}
	.st4{opacity:0.6;fill:url(#SVGID_00000019672689936650164760000008897263740068245129_);}
	.st5{fill:#FFFFFF;}
	.st6{opacity:0.2;fill:#A4C96A;}
	.st7{fill:#FAAF78;}
	.st8{opacity:0.4;fill:#FF7A8E;}
	.st9{opacity:0.5;}
	.st10{fill:#FF7A8E;}
	.st11{opacity:0.2118;}
	.st12{fill:#6B1952;}
	.st13{fill:#F77D48;}
	.st14{fill:#A33C34;}
	.st15{opacity:0.2;}
	.st16{fill:#39005E;}
	.st17{opacity:0.6;}
	.st18{fill-rule:evenodd;clip-rule:evenodd;fill:#6B1952;}
	.st19{fill:#FF6294;}
	.st20{fill-rule:evenodd;clip-rule:evenodd;fill:#FFFFFF;}
	.st21{opacity:0.35;}
	.st22{fill:#6B184E;}
	.st23{opacity:0.5;fill:#FFFFFF;}
	.st24{opacity:0.4;}
	.st25{fill:none;stroke:#F49257;stroke-miterlimit:10;}
	.st26{fill:#95224C;stroke:#95224C;stroke-width:2;stroke-linecap:round;stroke-linejoin:round;stroke-miterlimit:10;}
	.st27{fill:#95224C;}
	.st28{fill:#B14534;stroke:#B14534;stroke-width:3;stroke-miterlimit:10;}
	.st29{fill:#F49257;stroke:#F49257;stroke-width:3;stroke-linecap:round;stroke-linejoin:round;stroke-miterlimit:10;}
	.st30{fill:#B14534;}
	.st31{fill:none;stroke:#B14534;stroke-width:3;stroke-miterlimit:10;}
	.st32{fill:#FFFFFF;stroke:#F49257;stroke-width:3;stroke-miterlimit:10;}
	.st33{fill:#FFFFFF;stroke:#B14534;stroke-width:3;stroke-miterlimit:10;}
	.st34{fill:none;stroke:#F49257;stroke-width:3;stroke-linecap:round;stroke-linejoin:round;stroke-miterlimit:10;}
	.st35{fill:#F49257;stroke:#F49257;stroke-miterlimit:10;}
	.st36{fill:#7B933C;}
	.st37{clip-path:url(#SVGID_00000011752575427355035140000003492962228836099739_);fill:#B14534;}
	.st38{fill:#F49257;}
	.st39{fill:none;stroke:#F49257;stroke-width:3;stroke-miterlimit:10;}
	.st40{fill:none;stroke:#95224C;stroke-width:3;stroke-linecap:round;stroke-miterlimit:10;}
	.st41{fill:none;stroke:#B14534;stroke-width:3;stroke-linecap:round;stroke-miterlimit:10;}
	.st42{opacity:0.5;fill:#FAAF78;stroke:#F49257;stroke-width:3;stroke-miterlimit:10;}
	.st43{clip-path:url(#SVGID_00000110470128463393248290000013729521630965109666_);fill:#B14534;}
	.st44{fill:#CA5E72;}
	.st45{fill:#F49257;stroke:#FAAF78;stroke-width:2;stroke-miterlimit:10;}
	.st46{fill:#7B933C;stroke:#A4C96A;stroke-width:2;stroke-miterlimit:10;}
	.st47{fill:#B14534;stroke:#D86F67;stroke-width:2;stroke-miterlimit:10;}
	.st48{opacity:0.5;fill:#F49257;}
	.st49{opacity:0.5;fill:#FAAF78;}
	.st50{clip-path:url(#SVGID_00000113338163156070311310000008775731197751878543_);}
	.st51{opacity:0.5;fill:#CA5E72;}
	.st52{clip-path:url(#SVGID_00000116217043667355872580000016767018838693517470_);}
	.st53{clip-path:url(#SVGID_00000001637410831436952440000000871311515771730069_);}
	.st54{clip-path:url(#SVGID_00000031202439392362504350000013596953862187970993_);}
	.st55{clip-path:url(#SVGID_00000018227490334114726050000005335552707755996824_);}
	.st56{clip-path:url(#SVGID_00000155867996122462112250000010559119038171105434_);}
	.st57{fill:#09487E;}
	.st58{opacity:0.5;fill:#09487E;}
	.st59{clip-path:url(#SVGID_00000167386610555003348880000000870523125776343975_);}
	.st60{clip-path:url(#SVGID_00000158747327465404982750000004910963760585569679_);}
	.st61{clip-path:url(#SVGID_00000114049310240972734640000005482927687051996572_);}
	.st62{fill:url(#SVGID_00000139259999671492138940000006238834926279296390_);}
	.st63{clip-path:url(#SVGID_00000171715482939357548960000008521759296830522029_);}
	.st64{fill:#7B933C;stroke:#FFFFFF;stroke-width:0.25;stroke-miterlimit:10;}
	.st65{clip-path:url(#SVGID_00000000924018709012221190000014551297634479147687_);}
	.st66{opacity:0.5;fill:#95224C;}
	.st67{clip-path:url(#SVGID_00000139991908983000359790000013998481150153154196_);}
	.st68{clip-path:url(#SVGID_00000084532500984297241860000005182394127832976543_);}
	.st69{clip-path:url(#SVGID_00000029745307076736322090000008580726915528692394_);}
	.st70{fill:url(#SVGID_00000051371951907065392120000004195720719835100602_);}
	.st71{clip-path:url(#SVGID_00000121984443871553071580000000304858476360804279_);}
	.st72{opacity:0.5;fill:#A4C96A;}
	.st73{fill:#A4C96A;}
	.st74{opacity:0.35;fill:#95224C;}
	.st75{fill:#DFDFDF;}
	.st76{clip-path:url(#SVGID_00000007411483998782637040000016103514171872953258_);fill:#B14534;}
	.st77{clip-path:url(#SVGID_00000037673526128888806960000005597994404253749918_);}
	.st78{clip-path:url(#SVGID_00000118396935806565163070000004919838726187379636_);}
	.st79{opacity:0.35;fill:#F49257;}
	.st80{opacity:0.7;fill:#F49257;}
	.st81{opacity:0.35;fill:#B14534;}
	.st82{fill:none;stroke:#0000FF;stroke-width:4;stroke-linecap:round;stroke-linejoin:round;stroke-miterlimit:10;}
	.st83{fill:none;stroke:#0000FF;stroke-width:4;stroke-miterlimit:10;}
	.st84{fill:#0000FF;}
	.st85{fill:none;stroke:#0000FF;stroke-width:2;stroke-miterlimit:10;}
	.st86{fill:none;stroke:#0000FF;stroke-width:2;stroke-linecap:round;stroke-linejoin:round;stroke-miterlimit:10;}
	.st87{fill:none;stroke:#0000FF;stroke-miterlimit:10;}
	.st88{fill:#3E5902;}
	.st89{fill:#FFFFFD;stroke:#993300;stroke-width:3;stroke-miterlimit:10;}
	.st90{fill:#FAAF78;stroke:#993300;stroke-width:3;stroke-miterlimit:10;}
	.st91{fill:#FFFFFD;}
	.st92{fill:#FBD4BD;}
	.st93{fill:#F7AF84;}
	.st94{fill:#993300;stroke:#993300;stroke-miterlimit:10;}
	.st95{fill:none;stroke:#FBD4BD;stroke-width:3;}
	.st96{opacity:0.8;}
	.st97{fill:url(#SVGID_00000040543298545592473960000016718056948161441432_);}
	.st98{opacity:0.7;}
	.st99{fill:url(#SVGID_00000085228375414586573780000008016807597900948385_);}
	.st100{opacity:0.3;fill:url(#);}
	.st101{clip-path:url(#SVGID_00000074401593959542338370000018277270861367683203_);}
	.st102{fill:#FFFFFF;stroke:#A4C96A;stroke-width:25;stroke-linecap:round;stroke-linejoin:round;stroke-miterlimit:10;}
	.st103{opacity:0.6;fill:url(#SVGID_00000003812373789968910990000018006855876130268298_);}
	.st104{opacity:0.35;fill:#7B933C;}
	.st105{clip-path:url(#SVGID_00000164506129912966155870000000636212426093839797_);}
	.st106{opacity:0.05;}
	.st107{opacity:0.75;fill:url(#);}
	.st108{fill:#D1E4B4;}
	.st109{fill:#F0B4BB;}
	.st110{fill:#EA402B;}
	.st111{fill:#FAC5C4;}
	.st112{fill:#A92100;}
	.st113{fill:#E7B83F;}
	.st114{fill:#F88093;}
	.st115{fill:none;stroke:#F0B4BB;stroke-width:2.8898;stroke-miterlimit:10;}
	.st116{fill:none;stroke:#EA402B;stroke-width:2.8898;stroke-miterlimit:10;}
	.st117{fill:none;stroke:#A92100;stroke-width:2.8898;stroke-miterlimit:10;}
	.st118{fill:none;stroke:#E7B83F;stroke-width:2.8898;stroke-miterlimit:10;}
	.st119{fill:none;stroke:#F88093;stroke-width:2.8898;stroke-miterlimit:10;}
	.st120{fill:#044348;}
	.st121{fill:#7E1126;}
</style>
<g>
	<path class="st88" d="M18.55,7.75c0-2.04-1.65-3.7-3.7-3.7c-0.74,0-1.43,0.22-2.01,0.59c0.08-0.3,0.12-0.62,0.12-0.95
		c0-2.04-1.65-3.69-3.7-3.69c-2.04,0-3.7,1.65-3.7,3.69c0,0.33,0.04,0.65,0.12,0.95C5.12,4.27,4.44,4.05,3.7,4.05
		C1.65,4.05,0,5.71,0,7.75c0,1.97,1.55,3.59,3.5,3.69c-0.83,0.68-1.37,1.71-1.37,2.87c0,2.04,1.65,3.7,3.7,3.7
		c1.57,0,2.91-0.98,3.45-2.37C9.81,17.02,11.15,18,12.72,18c2.04,0,3.7-1.65,3.7-3.7c0-1.16-0.53-2.19-1.37-2.87
		C17,11.33,18.55,9.72,18.55,7.75z M11.27,9.54c0,0.09-0.01,0.17-0.02,0.25l2.02,0.36c0.06-0.11,0.18-0.17,0.3-0.15
		c0.16,0.03,0.27,0.18,0.24,0.34c-0.03,0.16-0.18,0.27-0.34,0.24c-0.13-0.02-0.22-0.12-0.24-0.24l-2.02-0.36
		c-0.04,0.17-0.1,0.32-0.17,0.47l1.78,1.03c0.09-0.08,0.23-0.1,0.34-0.03c0.14,0.08,0.19,0.26,0.11,0.4
		c-0.08,0.14-0.26,0.19-0.4,0.11c-0.11-0.06-0.16-0.19-0.14-0.31l-1.78-1.03c-0.09,0.14-0.2,0.27-0.32,0.38l1.32,1.57
		c0.11-0.04,0.24-0.01,0.33,0.08c0.1,0.12,0.09,0.31-0.04,0.41c-0.12,0.1-0.31,0.09-0.41-0.04c-0.08-0.1-0.09-0.23-0.03-0.34
		l-1.32-1.57c-0.13,0.1-0.28,0.19-0.43,0.25l0.7,1.93c0.12,0,0.24,0.07,0.28,0.19c0.06,0.15-0.02,0.32-0.18,0.38
		c-0.15,0.06-0.32-0.02-0.38-0.18c-0.04-0.12,0-0.25,0.09-0.33l-0.7-1.93c-0.16,0.05-0.32,0.08-0.5,0.08v2.05
		c0.11,0.04,0.2,0.15,0.2,0.27c0,0.16-0.13,0.29-0.29,0.29c-0.16,0-0.29-0.13-0.29-0.29c0-0.13,0.08-0.23,0.2-0.27v-2.05
		C9,11.53,8.84,11.5,8.68,11.45l-0.7,1.93c0.09,0.08,0.13,0.2,0.09,0.33c-0.06,0.15-0.22,0.23-0.38,0.18
		c-0.15-0.06-0.23-0.22-0.18-0.38c0.04-0.12,0.16-0.19,0.28-0.19l0.7-1.93c-0.16-0.07-0.3-0.15-0.43-0.25l-1.32,1.57
		c0.06,0.1,0.06,0.24-0.03,0.34c-0.1,0.12-0.29,0.14-0.41,0.04c-0.12-0.1-0.14-0.29-0.04-0.41c0.08-0.1,0.21-0.13,0.33-0.08
		l1.32-1.57c-0.12-0.11-0.23-0.24-0.32-0.38l-1.78,1.03c0.02,0.12-0.03,0.24-0.14,0.31c-0.14,0.08-0.32,0.03-0.4-0.11
		c-0.08-0.14-0.03-0.32,0.11-0.4c0.11-0.06,0.24-0.05,0.34,0.03l1.78-1.03c-0.08-0.15-0.13-0.31-0.17-0.47L5.3,10.34
		c-0.02,0.12-0.11,0.22-0.24,0.24c-0.16,0.03-0.31-0.08-0.34-0.24C4.7,10.18,4.8,10.03,4.96,10c0.13-0.02,0.24,0.04,0.3,0.15
		l2.02-0.36C7.28,9.71,7.27,9.63,7.27,9.54s0.01-0.17,0.02-0.25L5.27,8.93C5.21,9.04,5.09,9.1,4.96,9.08C4.8,9.05,4.7,8.9,4.72,8.74
		C4.75,8.58,4.91,8.47,5.07,8.5C5.19,8.52,5.28,8.62,5.3,8.74L7.32,9.1c0.04-0.17,0.1-0.32,0.17-0.47L5.72,7.6
		C5.62,7.68,5.49,7.7,5.38,7.63c-0.14-0.08-0.19-0.26-0.11-0.4s0.26-0.19,0.4-0.11c0.11,0.06,0.16,0.19,0.14,0.31l1.78,1.03
		c0.09-0.14,0.2-0.27,0.32-0.38L6.6,6.5C6.48,6.54,6.35,6.52,6.27,6.42C6.16,6.29,6.18,6.11,6.3,6c0.12-0.1,0.31-0.09,0.41,0.04
		c0.08,0.1,0.09,0.23,0.03,0.34l1.32,1.57C8.2,7.85,8.34,7.76,8.5,7.7L7.8,5.77c-0.12,0-0.24-0.07-0.28-0.19
		C7.46,5.43,7.54,5.26,7.69,5.2c0.15-0.06,0.32,0.02,0.38,0.18c0.04,0.12,0,0.25-0.09,0.33l0.7,1.93C8.84,7.58,9,7.55,9.18,7.55
		V5.49c-0.11-0.04-0.2-0.15-0.2-0.27c0-0.16,0.13-0.29,0.29-0.29c0.16,0,0.29,0.13,0.29,0.29c0,0.13-0.08,0.23-0.2,0.27v2.05
		c0.17,0.01,0.34,0.04,0.5,0.08l0.7-1.93c-0.09-0.08-0.13-0.2-0.09-0.33c0.06-0.15,0.22-0.23,0.38-0.18
		c0.15,0.06,0.23,0.22,0.18,0.38c-0.04,0.12-0.16,0.19-0.28,0.19l-0.7,1.93c0.16,0.07,0.3,0.15,0.43,0.25l1.32-1.57
		c-0.06-0.1-0.06-0.24,0.03-0.34c0.1-0.12,0.29-0.14,0.41-0.04c0.12,0.1,0.14,0.29,0.04,0.41c-0.08,0.1-0.21,0.13-0.33,0.08
		l-1.32,1.57c0.12,0.11,0.23,0.24,0.32,0.38l1.78-1.03c-0.02-0.12,0.03-0.24,0.14-0.31c0.14-0.08,0.32-0.03,0.4,0.11
		s0.03,0.32-0.11,0.4c-0.11,0.06-0.24,0.05-0.34-0.03l-1.78,1.03c0.08,0.15,0.13,0.31,0.17,0.47l2.02-0.36
		c0.02-0.12,0.11-0.22,0.24-0.24c0.16-0.03,0.31,0.08,0.34,0.24c0.03,0.16-0.08,0.31-0.24,0.34c-0.13,0.02-0.24-0.04-0.3-0.15
		l-2.02,0.36C11.27,9.37,11.27,9.46,11.27,9.54z"/>
</g>
</svg>
