<svg id="Capa_1" data-name="Capa 1" xmlns="http://www.w3.org/2000/svg" viewBox="0 0 63.72 62"><defs><style>.cls-1{fill:#a4c96a;}</style></defs><path class="cls-1" d="M21,62a14.66,14.66,0,0,1-1.62-.09A14.34,14.34,0,0,1,6.83,49.54a14.18,14.18,0,0,1,2-9.28A14.21,14.21,0,0,1,.07,25.67,14.29,14.29,0,0,1,17.61,13.15a14.3,14.3,0,0,1,28.5,0,14.6,14.6,0,0,1,4.53-.34,14.43,14.43,0,0,1,13,12.86,14.21,14.21,0,0,1-8.73,14.59,14.18,14.18,0,0,1,2,9.28,14.29,14.29,0,0,1-25,7.47A14.21,14.21,0,0,1,21,62ZM14.3,15.75c-.32,0-.64,0-1,0A11.41,11.41,0,0,0,3,26,11.25,11.25,0,0,0,11.56,38a1.51,1.51,0,0,1,.79,2.42A11.3,11.3,0,1,0,30.59,53.69a1.56,1.56,0,0,1,2.54,0A11.3,11.3,0,1,0,51.37,40.44,1.5,1.5,0,0,1,52.16,38,11.23,11.23,0,0,0,60.67,26h0a11.29,11.29,0,0,0-15.49-9.37,1.47,1.47,0,0,1-1.43-.18,1.5,1.5,0,0,1-.62-1.31c0-.26,0-.53,0-.79a11.3,11.3,0,1,0-22.6,0c0,.26,0,.53,0,.79A1.5,1.5,0,0,1,20,16.4a1.49,1.49,0,0,1-1.44.18A11.15,11.15,0,0,0,14.3,15.75Z"/><path class="cls-1" d="M33.79,21.37a1.93,1.93,0,1,1-1.93-1.93A1.93,1.93,0,0,1,33.79,21.37Z"/><path class="cls-1" d="M33.79,43.66a1.93,1.93,0,1,1-1.93-1.93A1.93,1.93,0,0,1,33.79,43.66Z"/><path class="cls-1" d="M25.34,23.27a1.92,1.92,0,1,1-2.72,0A1.93,1.93,0,0,1,25.34,23.27Z"/><path class="cls-1" d="M41.1,39a1.92,1.92,0,1,1-2.72,0A1.93,1.93,0,0,1,41.1,39Z"/><path class="cls-1" d="M20.71,30.58a1.93,1.93,0,1,1-1.92,1.93A1.93,1.93,0,0,1,20.71,30.58Z"/><path class="cls-1" d="M43,30.58a1.93,1.93,0,1,1-1.92,1.93A1.93,1.93,0,0,1,43,30.58Z"/><path class="cls-1" d="M22.62,39a1.92,1.92,0,1,1,0,2.72A1.93,1.93,0,0,1,22.62,39Z"/><circle class="cls-1" cx="39.74" cy="24.63" r="1.93"/><polygon class="cls-1" points="31.86 25.22 32.92 29.94 37.02 27.36 34.43 31.45 39.15 32.51 34.43 33.58 37.02 37.67 32.92 35.08 31.86 39.8 30.79 35.08 26.7 37.67 29.29 33.58 24.57 32.51 29.29 31.45 26.7 27.36 30.79 29.94 31.86 25.22"/></svg>