<?xml version="1.0" encoding="utf-8"?>
<!-- Generator: Adobe Illustrator 25.4.1, SVG Export Plug-In . SVG Version: 6.00 Build 0)  -->
<svg version="1.1" id="Capa_1" xmlns="http://www.w3.org/2000/svg" xmlns:xlink="http://www.w3.org/1999/xlink" x="0px" y="0px"
	 viewBox="0 0 62.4 85.2" style="enable-background:new 0 0 62.4 85.2;" xml:space="preserve">
<style type="text/css">
	.st0{fill:#577D1E;}
	.st1{clip-path:url(#SVGID_00000085211773062257272700000015972475882430571405_);}
	.st2{fill:#FEF4EE;}
	.st3{opacity:0.1;fill:#577D1E;}
	.st4{opacity:0.6;fill:url(#SVGID_00000013913429809078902260000003711180315449456296_);}
	.st5{fill:#FFFFFF;}
	.st6{opacity:0.2;fill:#A4C96A;}
	.st7{fill:#FAAF78;}
	.st8{opacity:0.4;fill:#FF7A8E;}
	.st9{opacity:0.5;}
	.st10{fill:#FF7A8E;}
	.st11{opacity:0.2118;}
	.st12{fill:#6B1952;}
	.st13{fill:#F77D48;}
	.st14{fill:#A33C34;}
	.st15{opacity:0.2;}
	.st16{fill:#39005E;}
	.st17{opacity:0.6;}
	.st18{fill-rule:evenodd;clip-rule:evenodd;fill:#6B1952;}
	.st19{fill:#FF6294;}
	.st20{fill-rule:evenodd;clip-rule:evenodd;fill:#FFFFFF;}
	.st21{opacity:0.35;}
	.st22{fill:#6B184E;}
	.st23{opacity:0.5;fill:#FFFFFF;}
	.st24{opacity:0.4;}
	.st25{fill:none;stroke:#F49257;stroke-miterlimit:10;}
	.st26{fill:#95224C;stroke:#95224C;stroke-width:2;stroke-linecap:round;stroke-linejoin:round;stroke-miterlimit:10;}
	.st27{fill:#95224C;}
	.st28{fill:#B14534;stroke:#B14534;stroke-width:3;stroke-miterlimit:10;}
	.st29{fill:#F49257;stroke:#F49257;stroke-width:3;stroke-linecap:round;stroke-linejoin:round;stroke-miterlimit:10;}
	.st30{fill:#B14534;}
	.st31{fill:none;stroke:#B14534;stroke-width:3;stroke-miterlimit:10;}
	.st32{fill:#FFFFFF;stroke:#F49257;stroke-width:3;stroke-miterlimit:10;}
	.st33{fill:#FFFFFF;stroke:#B14534;stroke-width:3;stroke-miterlimit:10;}
	.st34{fill:none;stroke:#F49257;stroke-width:3;stroke-linecap:round;stroke-linejoin:round;stroke-miterlimit:10;}
	.st35{fill:#F49257;stroke:#F49257;stroke-miterlimit:10;}
	.st36{fill:#7B933C;}
	.st37{clip-path:url(#SVGID_00000101097584248470155710000001536208111380443572_);fill:#B14534;}
	.st38{fill:#F49257;}
	.st39{fill:none;stroke:#F49257;stroke-width:3;stroke-miterlimit:10;}
	.st40{fill:none;stroke:#95224C;stroke-width:3;stroke-linecap:round;stroke-miterlimit:10;}
	.st41{fill:none;stroke:#B14534;stroke-width:3;stroke-linecap:round;stroke-miterlimit:10;}
	.st42{opacity:0.5;fill:#FAAF78;stroke:#F49257;stroke-width:3;stroke-miterlimit:10;}
	.st43{clip-path:url(#SVGID_00000058556935600734267940000009036268120405776291_);fill:#B14534;}
	.st44{fill:#CA5E72;}
	.st45{fill:#F49257;stroke:#FAAF78;stroke-width:2;stroke-miterlimit:10;}
	.st46{fill:#7B933C;stroke:#A4C96A;stroke-width:2;stroke-miterlimit:10;}
	.st47{fill:#B14534;stroke:#D86F67;stroke-width:2;stroke-miterlimit:10;}
	.st48{opacity:0.5;fill:#F49257;}
	.st49{opacity:0.5;fill:#FAAF78;}
	.st50{clip-path:url(#SVGID_00000018949500631093144530000008607907116578057357_);}
	.st51{opacity:0.5;fill:#CA5E72;}
	.st52{clip-path:url(#SVGID_00000061445241705167401570000006172881857542596020_);}
	.st53{clip-path:url(#SVGID_00000143608177007287481440000006703084125741084812_);}
	.st54{clip-path:url(#SVGID_00000098191513521774978080000006540156516342973317_);}
	.st55{clip-path:url(#SVGID_00000101789084024784128470000015264429855978210993_);}
	.st56{clip-path:url(#SVGID_00000083070504223227325130000012406739281561574075_);}
	.st57{fill:#09487E;}
	.st58{opacity:0.5;fill:#09487E;}
	.st59{clip-path:url(#SVGID_00000024687490474877225560000006209683026507742633_);}
	.st60{clip-path:url(#SVGID_00000026865509064444327300000001617794601969132708_);}
	.st61{clip-path:url(#SVGID_00000034076450240492607000000010445073440997771402_);}
	.st62{fill:url(#SVGID_00000101083869673658659060000005093789720932174994_);}
	.st63{clip-path:url(#SVGID_00000181089441397038802350000016321713567302421425_);}
	.st64{fill:#7B933C;stroke:#FFFFFF;stroke-width:0.25;stroke-miterlimit:10;}
	.st65{clip-path:url(#SVGID_00000111885404765496791450000009493744898226157953_);}
	.st66{opacity:0.5;fill:#95224C;}
	.st67{clip-path:url(#SVGID_00000098902825357477760890000001486219055920299449_);}
	.st68{clip-path:url(#SVGID_00000096766439884034086800000003184551159489607820_);}
	.st69{clip-path:url(#SVGID_00000093158530048118963700000002365805548151887757_);}
	.st70{fill:url(#SVGID_00000089553219616097534790000006446602620606035072_);}
	.st71{clip-path:url(#SVGID_00000172416001769060535420000006784342293660048822_);}
	.st72{opacity:0.5;fill:#A4C96A;}
	.st73{fill:#A4C96A;}
	.st74{opacity:0.35;fill:#95224C;}
	.st75{fill:#DFDFDF;}
	.st76{clip-path:url(#SVGID_00000031194969332949235490000017263648760794188729_);fill:#B14534;}
	.st77{clip-path:url(#SVGID_00000142858528578595990360000010527287776734532515_);}
	.st78{clip-path:url(#SVGID_00000121247315288336314770000016253673288764223874_);}
	.st79{opacity:0.35;fill:#F49257;}
	.st80{opacity:0.7;fill:#F49257;}
	.st81{opacity:0.35;fill:#B14534;}
	.st82{fill:none;stroke:#0000FF;stroke-width:4;stroke-linecap:round;stroke-linejoin:round;stroke-miterlimit:10;}
	.st83{fill:none;stroke:#0000FF;stroke-width:4;stroke-miterlimit:10;}
	.st84{fill:#0000FF;}
	.st85{fill:none;stroke:#0000FF;stroke-width:2;stroke-miterlimit:10;}
	.st86{fill:none;stroke:#0000FF;stroke-width:2;stroke-linecap:round;stroke-linejoin:round;stroke-miterlimit:10;}
	.st87{fill:none;stroke:#0000FF;stroke-miterlimit:10;}
	.st88{fill:#3E5902;}
	.st89{fill:#FFFFFD;stroke:#993300;stroke-width:3;stroke-miterlimit:10;}
	.st90{fill:#FAAF78;stroke:#993300;stroke-width:3;stroke-miterlimit:10;}
	.st91{fill:#FFFFFD;}
	.st92{fill:#FBD4BD;}
	.st93{fill:#F7AF84;}
	.st94{fill:#993300;stroke:#993300;stroke-miterlimit:10;}
	.st95{fill:none;stroke:#FBD4BD;stroke-width:3;}
	.st96{opacity:0.8;}
	.st97{fill:url(#SVGID_00000063619295181935312690000010874152519345371008_);}
	.st98{opacity:0.7;}
	.st99{fill:url(#SVGID_00000018195171622677450740000012320738763024547226_);}
	.st100{opacity:0.3;fill:url(#);}
	.st101{clip-path:url(#SVGID_00000129894582779670348860000014971615892004035747_);}
	.st102{fill:#FFFFFF;stroke:#A4C96A;stroke-width:25;stroke-linecap:round;stroke-linejoin:round;stroke-miterlimit:10;}
	.st103{opacity:0.6;fill:url(#SVGID_00000021092749450554268040000008437350631947134372_);}
	.st104{opacity:0.35;fill:#7B933C;}
	.st105{clip-path:url(#SVGID_00000023242183984980736660000012488486698027834801_);}
	.st106{opacity:0.05;}
	.st107{opacity:0.75;fill:url(#);}
	.st108{fill:#D1E4B4;}
	.st109{fill:#F0B4BB;}
	.st110{fill:#EA402B;}
	.st111{fill:#FAC5C4;}
	.st112{fill:#A92100;}
	.st113{fill:#E7B83F;}
	.st114{fill:#F88093;}
	.st115{fill:none;stroke:#F0B4BB;stroke-width:2.8898;stroke-miterlimit:10;}
	.st116{fill:none;stroke:#EA402B;stroke-width:2.8898;stroke-miterlimit:10;}
	.st117{fill:none;stroke:#A92100;stroke-width:2.8898;stroke-miterlimit:10;}
	.st118{fill:none;stroke:#E7B83F;stroke-width:2.8898;stroke-miterlimit:10;}
	.st119{fill:none;stroke:#F88093;stroke-width:2.8898;stroke-miterlimit:10;}
	.st120{fill:#044348;}
	.st121{fill:#7E1126;}
</style>
<path class="st5" d="M37.68,69.9c1.76-0.36,3.32-0.94,4.68-1.74c1.36-0.8,2.44-1.8,3.24-3c0.8-1.2,1.2-2.6,1.2-4.2
	c0-1.68-0.38-3.14-1.14-4.38c-0.76-1.24-1.96-2.36-3.6-3.36c-1.64-1-3.8-1.94-6.48-2.82c-2.68-0.88-5.94-1.8-9.78-2.76
	c-3.2-0.8-6.24-1.82-9.12-3.06c-2.88-1.24-5.4-2.78-7.56-4.62c-2.16-1.84-3.86-4.08-5.1-6.72c-1.24-2.64-1.86-5.84-1.86-9.6
	s0.78-7.1,2.34-10.02s3.7-5.4,6.42-7.44c2.72-2.04,5.88-3.58,9.48-4.62C24,0.52,27.8,0,31.8,0c5.04,0,9.32,0.58,12.84,1.74
	C48.16,2.9,51.28,4.36,54,6.12c1.76,1.12,3.02,2.4,3.78,3.84c0.76,1.44,1.14,2.84,1.14,4.2c0,1.36-0.24,2.5-0.72,3.42
	s-1.08,1.66-1.8,2.22c-0.72,0.56-1.5,0.98-2.34,1.26c-0.84,0.28-1.62,0.42-2.34,0.42c-1.36,0-2.52-0.2-3.48-0.6
	c-0.96-0.4-1.92-0.88-2.88-1.44c-0.8-0.48-1.64-0.98-2.52-1.5c-0.88-0.52-1.9-1.02-3.06-1.5c-1.16-0.48-2.48-0.88-3.96-1.2
	c-1.48-0.32-3.26-0.48-5.34-0.48c-4.48,0-7.74,0.9-9.78,2.7s-3.06,3.82-3.06,6.06c0,2.96,1.58,5.32,4.74,7.08
	c3.16,1.76,8.22,3.52,15.18,5.28c2.96,0.8,5.94,1.76,8.94,2.88c3,1.12,5.66,2.58,7.98,4.38s4.22,4.08,5.7,6.84s2.22,6.22,2.22,10.38
	c0,3.36-0.68,6.54-2.04,9.54c-1.36,3-3.36,5.64-6,7.92s-5.94,4.08-9.9,5.4c-3.96,1.32-8.58,1.98-13.86,1.98
	c-3.28,0-6.28-0.28-9-0.84c-2.72-0.56-5.18-1.28-7.38-2.16c-2.2-0.88-4.14-1.88-5.82-3c-1.68-1.12-3.12-2.28-4.32-3.48
	c-0.96-0.88-1.88-1.96-2.76-3.24C0.44,71.2,0,69.88,0,68.52c0-1.44,0.26-2.64,0.78-3.6s1.16-1.74,1.92-2.34
	c0.76-0.6,1.54-1.02,2.34-1.26c0.8-0.24,1.48-0.36,2.04-0.36c1.12,0,2.16,0.2,3.12,0.6c0.96,0.4,1.88,0.92,2.76,1.56
	c1.2,0.96,2.42,1.9,3.66,2.82c1.24,0.92,2.62,1.7,4.14,2.34c1.52,0.64,3.22,1.16,5.1,1.56c1.88,0.4,3.98,0.6,6.3,0.6
	C34.08,70.44,35.92,70.26,37.68,69.9z"/>
</svg>
