<?xml version="1.0" encoding="utf-8"?>
<!-- Generator: Adobe Illustrator 25.4.1, SVG Export Plug-In . SVG Version: 6.00 Build 0)  -->
<svg version="1.1" id="Capa_1" xmlns="http://www.w3.org/2000/svg" xmlns:xlink="http://www.w3.org/1999/xlink" x="0px" y="0px"
	 viewBox="0 0 62.74 62" style="enable-background:new 0 0 62.74 62;" xml:space="preserve">
<style type="text/css">
	.st0{fill:#577D1E;}
	.st1{clip-path:url(#SVGID_00000025417273284278568970000001315397368308317116_);}
	.st2{fill:#FEF4EE;}
	.st3{opacity:0.1;fill:#577D1E;}
	.st4{opacity:0.6;fill:url(#SVGID_00000073682348191837300540000007866992089634089108_);}
	.st5{fill:#FFFFFF;}
	.st6{opacity:0.2;fill:#A4C96A;}
	.st7{fill:#FAAF78;}
	.st8{opacity:0.4;fill:#FF7A8E;}
	.st9{opacity:0.5;}
	.st10{fill:#FF7A8E;}
	.st11{opacity:0.2118;}
	.st12{fill:#6B1952;}
	.st13{fill:#F77D48;}
	.st14{fill:#A33C34;}
	.st15{opacity:0.2;}
	.st16{fill:#39005E;}
	.st17{opacity:0.6;}
	.st18{fill-rule:evenodd;clip-rule:evenodd;fill:#6B1952;}
	.st19{fill:#FF6294;}
	.st20{fill-rule:evenodd;clip-rule:evenodd;fill:#FFFFFF;}
	.st21{opacity:0.35;}
	.st22{fill:#6B184E;}
	.st23{opacity:0.5;fill:#FFFFFF;}
	.st24{opacity:0.4;}
	.st25{fill:none;stroke:#F49257;stroke-miterlimit:10;}
	.st26{fill:#95224C;stroke:#95224C;stroke-width:2;stroke-linecap:round;stroke-linejoin:round;stroke-miterlimit:10;}
	.st27{fill:#95224C;}
	.st28{fill:#B14534;stroke:#B14534;stroke-width:3;stroke-miterlimit:10;}
	.st29{fill:#F49257;stroke:#F49257;stroke-width:3;stroke-linecap:round;stroke-linejoin:round;stroke-miterlimit:10;}
	.st30{fill:#B14534;}
	.st31{fill:none;stroke:#B14534;stroke-width:3;stroke-miterlimit:10;}
	.st32{fill:#FFFFFF;stroke:#F49257;stroke-width:3;stroke-miterlimit:10;}
	.st33{fill:#FFFFFF;stroke:#B14534;stroke-width:3;stroke-miterlimit:10;}
	.st34{fill:none;stroke:#F49257;stroke-width:3;stroke-linecap:round;stroke-linejoin:round;stroke-miterlimit:10;}
	.st35{fill:#F49257;stroke:#F49257;stroke-miterlimit:10;}
	.st36{fill:#7B933C;}
	.st37{clip-path:url(#SVGID_00000138548844350310646810000012303396203933806000_);fill:#B14534;}
	.st38{fill:#F49257;}
	.st39{fill:none;stroke:#F49257;stroke-width:3;stroke-miterlimit:10;}
	.st40{fill:none;stroke:#95224C;stroke-width:3;stroke-linecap:round;stroke-miterlimit:10;}
	.st41{fill:none;stroke:#B14534;stroke-width:3;stroke-linecap:round;stroke-miterlimit:10;}
	.st42{opacity:0.5;fill:#FAAF78;stroke:#F49257;stroke-width:3;stroke-miterlimit:10;}
	.st43{clip-path:url(#SVGID_00000160190705216356672080000009409951519590658945_);fill:#B14534;}
	.st44{fill:#CA5E72;}
	.st45{fill:#F49257;stroke:#FAAF78;stroke-width:2;stroke-miterlimit:10;}
	.st46{fill:#7B933C;stroke:#A4C96A;stroke-width:2;stroke-miterlimit:10;}
	.st47{fill:#B14534;stroke:#D86F67;stroke-width:2;stroke-miterlimit:10;}
	.st48{opacity:0.5;fill:#F49257;}
	.st49{opacity:0.5;fill:#FAAF78;}
	.st50{clip-path:url(#SVGID_00000066517349399851515980000005418759198143061635_);}
	.st51{opacity:0.5;fill:#CA5E72;}
	.st52{clip-path:url(#SVGID_00000078010062073209976730000010732868304118184601_);}
	.st53{clip-path:url(#SVGID_00000140009776896076346110000005276712632650261435_);}
	.st54{clip-path:url(#SVGID_00000026137879563230605490000000628389247445018499_);}
	.st55{clip-path:url(#SVGID_00000047743874157495104230000003441396497080882835_);}
	.st56{clip-path:url(#SVGID_00000002377462503602369600000008065737190622267300_);}
	.st57{fill:#09487E;}
	.st58{opacity:0.5;fill:#09487E;}
	.st59{clip-path:url(#SVGID_00000114771004232316788560000018155773781166568065_);}
	.st60{clip-path:url(#SVGID_00000084489397502046308160000001079062548277885063_);}
	.st61{clip-path:url(#SVGID_00000180367088566887884520000012162871908050812294_);}
	.st62{fill:url(#SVGID_00000023984592229027785640000000186119443659492502_);}
	.st63{clip-path:url(#SVGID_00000163773950350664246820000006517800125044690062_);}
	.st64{fill:#7B933C;stroke:#FFFFFF;stroke-width:0.25;stroke-miterlimit:10;}
	.st65{clip-path:url(#SVGID_00000128448012001520385100000012660732152276835997_);}
	.st66{opacity:0.5;fill:#95224C;}
	.st67{clip-path:url(#SVGID_00000132768790936349558510000005269468866411775935_);}
	.st68{clip-path:url(#SVGID_00000028291727682563900850000006081404774784762033_);}
	.st69{clip-path:url(#SVGID_00000039846496028737994910000001449951927381889414_);}
	.st70{fill:url(#SVGID_00000108281059563705716150000011188370216264779679_);}
	.st71{clip-path:url(#SVGID_00000106828921803901425110000008068934918001075119_);}
	.st72{opacity:0.5;fill:#A4C96A;}
	.st73{fill:#A4C96A;}
	.st74{opacity:0.35;fill:#95224C;}
	.st75{fill:#DFDFDF;}
	.st76{clip-path:url(#SVGID_00000102537873409262114420000003853002272235645598_);fill:#B14534;}
	.st77{clip-path:url(#SVGID_00000127733013968655762100000017432441802594652593_);}
	.st78{clip-path:url(#SVGID_00000048463379475666444130000009544610800696380299_);}
	.st79{opacity:0.35;fill:#F49257;}
	.st80{opacity:0.7;fill:#F49257;}
	.st81{opacity:0.35;fill:#B14534;}
	.st82{fill:none;stroke:#0000FF;stroke-width:4;stroke-linecap:round;stroke-linejoin:round;stroke-miterlimit:10;}
	.st83{fill:none;stroke:#0000FF;stroke-width:4;stroke-miterlimit:10;}
	.st84{fill:#0000FF;}
	.st85{fill:none;stroke:#0000FF;stroke-width:2;stroke-miterlimit:10;}
	.st86{fill:none;stroke:#0000FF;stroke-width:2;stroke-linecap:round;stroke-linejoin:round;stroke-miterlimit:10;}
	.st87{fill:none;stroke:#0000FF;stroke-miterlimit:10;}
	.st88{fill:#3E5902;}
	.st89{fill:#FFFFFD;stroke:#993300;stroke-width:3;stroke-miterlimit:10;}
	.st90{fill:#FAAF78;stroke:#993300;stroke-width:3;stroke-miterlimit:10;}
	.st91{fill:#FFFFFD;}
	.st92{fill:#FBD4BD;}
	.st93{fill:#F7AF84;}
	.st94{fill:#993300;stroke:#993300;stroke-miterlimit:10;}
	.st95{fill:none;stroke:#FBD4BD;stroke-width:3;}
	.st96{opacity:0.8;}
	.st97{fill:url(#SVGID_00000124851109892006329020000011820431227846894514_);}
	.st98{opacity:0.7;}
	.st99{fill:url(#SVGID_00000083075662039544920920000000322149918432376235_);}
	.st100{opacity:0.3;fill:url(#);}
	.st101{clip-path:url(#SVGID_00000167384823967478327030000014865709470047941296_);}
	.st102{fill:#FFFFFF;stroke:#A4C96A;stroke-width:25;stroke-linecap:round;stroke-linejoin:round;stroke-miterlimit:10;}
	.st103{opacity:0.6;fill:url(#SVGID_00000056408722714294662960000013031186555037508996_);}
	.st104{opacity:0.35;fill:#7B933C;}
	.st105{clip-path:url(#SVGID_00000140716678177952571900000008060957664282947463_);}
	.st106{opacity:0.05;}
	.st107{opacity:0.75;fill:url(#);}
	.st108{fill:#D1E4B4;}
	.st109{fill:#F0B4BB;}
	.st110{fill:#EA402B;}
	.st111{fill:#FAC5C4;}
	.st112{fill:#A92100;}
	.st113{fill:#E7B83F;}
	.st114{fill:#F88093;}
	.st115{fill:none;stroke:#F0B4BB;stroke-width:2.8898;stroke-miterlimit:10;}
	.st116{fill:none;stroke:#EA402B;stroke-width:2.8898;stroke-miterlimit:10;}
	.st117{fill:none;stroke:#A92100;stroke-width:2.8898;stroke-miterlimit:10;}
	.st118{fill:none;stroke:#E7B83F;stroke-width:2.8898;stroke-miterlimit:10;}
	.st119{fill:none;stroke:#F88093;stroke-width:2.8898;stroke-miterlimit:10;}
	.st120{fill:#044348;}
	.st121{fill:#7E1126;}
</style>
<path class="st73" d="M60.29,19.18c-0.34-0.8-0.72-1.59-1.12-2.36c-0.02-0.03-0.04-0.07-0.06-0.1c1.71-4.71,3.22-10.05,1.58-14.06
	c-0.31-0.77-0.95-1.39-1.74-1.72c-3.47-1.45-8.46-0.47-14.89,1.44c-0.12,0.03-0.22,0.09-0.32,0.16c-1.46-0.63-2.96-1.14-4.5-1.54
	c0,0,0,0,0,0c-0.53-0.14-1.1-0.26-1.75-0.39c0,0,0,0,0,0c-4.11-0.81-8.37-0.79-12.41,0.03C23.01,1.05,21,1.69,19.06,2.52
	c-0.1-0.07-0.2-0.13-0.32-0.17C12.31,0.43,7.32-0.55,3.85,0.89C3.06,1.22,2.42,1.84,2.11,2.61c-1.65,4.01-0.15,9.34,1.55,14.06
	c-0.19,0.36-0.38,0.71-0.55,1.08c-0.89,1.84-1.6,3.78-2.11,5.76c-0.13,0.51-0.25,1.02-0.35,1.52C0.22,27.09,0,29.21,0,31.34
	c0,0,0,0.01,0,0.01c0,0.46,0.01,0.91,0.03,1.37c0,0,0,0,0,0l0.02,0.35c0,0,0,0,0,0c0.02,0.42,0.05,0.83,0.09,1.25c0,0,0,0,0,0.01
	c0,0,0,0.01,0,0.01l0.01,0.09c0,0,0,0,0,0c0,0,0,0,0,0l0,0.01c0,0,0,0,0,0c0.05,0.46,0.1,0.92,0.17,1.37c0,0,0,0,0,0l0.03,0.24
	c0.06,0.43,0.14,0.86,0.22,1.29c0,0,0,0,0,0.01c0,0,0,0.01,0,0.01l0,0c0,0,0,0,0,0c0,0.01,0,0.02,0,0.02c0,0,0.01,0.03,0.01,0.03
	c0,0,0,0,0,0c0,0,0,0,0,0c0.04,0.21,0.09,0.42,0.14,0.63c0.06,0.26,0.11,0.53,0.17,0.79c0,0,0,0,0,0l0.01,0.04l0,0.02c0,0,0,0,0,0
	c0.12,0.46,0.24,0.93,0.38,1.38c0,0,0,0,0,0c0,0,0,0.01,0,0.01c0,0,0,0,0,0c0,0,0,0,0,0c0,0,0,0,0,0c0,0,0,0,0,0
	c0.28,0.93,0.6,1.86,0.97,2.77c-0.05-0.12-0.09-0.24-0.13-0.36c-0.2,0.28-0.39,0.57-0.53,0.89c-0.77,1.65-0.65,3.6,0.33,5.23
	c0.73,1.21,1.83,2.08,3.1,2.52c3.1,6.2,13.6,10.65,26.44,10.66c12.85,0.01,23.37-4.43,26.47-10.64c2.12-0.79,3.68-2.94,3.71-5.3
	c0.01-0.83-0.16-1.64-0.51-2.4c-0.15-0.32-0.33-0.61-0.53-0.9c-0.05,0.12-0.09,0.24-0.13,0.35c0.3-0.74,0.56-1.5,0.8-2.25
	c0.05-0.17,0.12-0.34,0.17-0.52c0,0,0,0,0-0.01c0,0,0-0.01,0-0.01c0,0,0,0,0,0c0.14-0.45,0.26-0.91,0.37-1.37c0,0,0,0,0,0
	c0,0,0,0,0,0l0.02-0.06c0,0,0,0,0,0c0.11-0.47,0.22-0.94,0.31-1.41c0,0,0,0,0,0c0,0,0,0,0,0l0.01-0.08c0,0,0,0,0,0
	c0.08-0.42,0.16-0.85,0.22-1.28c0,0,0,0,0,0c0,0,0,0,0,0l0.04-0.23c0,0,0,0,0,0c0,0,0,0,0,0c0.05-0.35,0.09-0.7,0.13-1.05
	c0.01-0.11,0.03-0.22,0.04-0.34c0,0,0,0,0,0c0,0,0,0,0,0c0,0,0,0,0,0l0.01-0.07l0-0.03c0,0,0,0,0,0c0.04-0.42,0.07-0.84,0.09-1.26
	c0,0,0,0,0,0l0.02-0.35c0,0,0,0,0,0c0.02-0.46,0.03-0.92,0.03-1.38C62.74,27.16,61.92,23.05,60.29,19.18z"/>
</svg>
