<?xml version="1.0" encoding="utf-8"?>
<!-- Generator: Adobe Illustrator 25.4.1, SVG Export Plug-In . SVG Version: 6.00 Build 0)  -->
<svg version="1.1" id="Capa_1" xmlns="http://www.w3.org/2000/svg" xmlns:xlink="http://www.w3.org/1999/xlink" x="0px" y="0px"
	 viewBox="0 0 182.97 180.81" style="enable-background:new 0 0 182.97 180.81;" xml:space="preserve">
<style type="text/css">
	.st0{clip-path:url(#SVGID_00000098907132220760943880000000768781087275680407_);}
	.st1{fill:#FEF1E8;}
	.st2{opacity:0.6;}
	.st3{clip-path:url(#SVGID_00000028295207305953236180000009239055020578238096_);}
	.st4{fill:#FEF4EE;}
	.st5{opacity:0.1;fill:#577D1E;}
	.st6{opacity:0.6;fill:url(#SVGID_00000060751779141342528640000001333020378398845060_);}
	.st7{fill:#FFFFFF;}
	.st8{opacity:0.2;fill:#A4C96A;}
	.st9{fill:#FAAF78;}
	.st10{opacity:0.4;fill:#FF7A8E;}
	.st11{opacity:0.5;}
	.st12{fill:#FF7A8E;}
	.st13{opacity:0.2118;}
	.st14{fill:#6B1952;}
	.st15{fill:#F77D48;}
	.st16{fill:#A33C34;}
	.st17{opacity:0.2;}
	.st18{fill:#39005E;}
	.st19{fill-rule:evenodd;clip-rule:evenodd;fill:#6B1952;}
	.st20{fill:#FF6294;}
	.st21{fill-rule:evenodd;clip-rule:evenodd;fill:#FFFFFF;}
	.st22{opacity:0.35;}
	.st23{fill:#6B184E;}
	.st24{opacity:0.5;fill:#FFFFFF;}
	.st25{opacity:0.4;}
	.st26{fill:none;stroke:#F49257;stroke-miterlimit:10;}
	.st27{fill:#95224C;stroke:#95224C;stroke-width:2;stroke-linecap:round;stroke-linejoin:round;stroke-miterlimit:10;}
	.st28{fill:#95224C;}
	.st29{fill:#B14534;stroke:#B14534;stroke-width:3;stroke-miterlimit:10;}
	.st30{fill:#F49257;stroke:#F49257;stroke-width:3;stroke-linecap:round;stroke-linejoin:round;stroke-miterlimit:10;}
	.st31{fill:#B14534;}
	.st32{fill:none;stroke:#B14534;stroke-width:3;stroke-miterlimit:10;}
	.st33{fill:#FFFFFF;stroke:#F49257;stroke-width:3;stroke-miterlimit:10;}
	.st34{fill:#FFFFFF;stroke:#B14534;stroke-width:3;stroke-miterlimit:10;}
	.st35{fill:none;stroke:#F49257;stroke-width:3;stroke-linecap:round;stroke-linejoin:round;stroke-miterlimit:10;}
	.st36{fill:#F49257;stroke:#F49257;stroke-miterlimit:10;}
	.st37{fill:#7B933C;}
	.st38{clip-path:url(#SVGID_00000020381658599274288920000009801224102872002698_);fill:#B14534;}
	.st39{fill:#F49257;}
	.st40{fill:none;stroke:#F49257;stroke-width:3;stroke-miterlimit:10;}
	.st41{fill:none;stroke:#95224C;stroke-width:3;stroke-linecap:round;stroke-miterlimit:10;}
	.st42{fill:none;stroke:#B14534;stroke-width:3;stroke-linecap:round;stroke-miterlimit:10;}
	.st43{opacity:0.5;fill:#FAAF78;stroke:#F49257;stroke-width:3;stroke-miterlimit:10;}
	.st44{clip-path:url(#SVGID_00000134956758589174883770000016047200976655837325_);fill:#B14534;}
	.st45{fill:#CA5E72;}
	.st46{fill:#F49257;stroke:#FAAF78;stroke-width:2;stroke-miterlimit:10;}
	.st47{fill:#7B933C;stroke:#A4C96A;stroke-width:2;stroke-miterlimit:10;}
	.st48{fill:#B14534;stroke:#D86F67;stroke-width:2;stroke-miterlimit:10;}
	.st49{opacity:0.5;fill:#F49257;}
	.st50{opacity:0.5;fill:#FAAF78;}
	.st51{clip-path:url(#SVGID_00000116952732841138490360000004635688102412958358_);}
	.st52{opacity:0.5;fill:#CA5E72;}
	.st53{clip-path:url(#SVGID_00000122692813081296043470000008601091177555432588_);}
	.st54{clip-path:url(#SVGID_00000155115810055334189760000015222140466812754088_);}
	.st55{clip-path:url(#SVGID_00000127767039314823735780000011958469872596918405_);}
	.st56{clip-path:url(#SVGID_00000042702634659160607930000015847069744898180531_);}
	.st57{clip-path:url(#SVGID_00000121987578663889270590000009566898160397584546_);}
	.st58{fill:#09487E;}
	.st59{opacity:0.5;fill:#09487E;}
	.st60{clip-path:url(#SVGID_00000073691486684029330660000005525649388100288927_);}
	.st61{clip-path:url(#SVGID_00000147189911650643275460000018356496608676187550_);}
	.st62{clip-path:url(#SVGID_00000137853996656235267500000004599735271744432278_);}
	.st63{fill:url(#SVGID_00000137126729890747229890000008191777216369165452_);}
	.st64{clip-path:url(#SVGID_00000182512945500882313790000010955082369440306847_);}
	.st65{fill:#7B933C;stroke:#FFFFFF;stroke-width:0.25;stroke-miterlimit:10;}
	.st66{clip-path:url(#SVGID_00000116918009051377764180000002209870293182175617_);}
	.st67{opacity:0.5;fill:#95224C;}
	.st68{clip-path:url(#SVGID_00000053533692647737275090000004654600415051609999_);}
	.st69{clip-path:url(#SVGID_00000160888475475026021470000009648707825478649249_);}
	.st70{clip-path:url(#SVGID_00000170239256319711460400000011095278759972864644_);}
	.st71{fill:url(#SVGID_00000129928264249158320720000010166838930419935617_);}
	.st72{clip-path:url(#SVGID_00000012437683452537574590000015455540382748481714_);}
	.st73{opacity:0.5;fill:#A4C96A;}
	.st74{fill:#A4C96A;}
	.st75{opacity:0.35;fill:#95224C;}
	.st76{fill:#DFDFDF;}
	.st77{clip-path:url(#SVGID_00000039850385539582081430000000515723019180664488_);fill:#B14534;}
	.st78{fill:#577D1E;}
	.st79{clip-path:url(#SVGID_00000161609021726129968210000002917499644317223816_);}
	.st80{clip-path:url(#SVGID_00000073701771608607643450000005458652271356435607_);}
	.st81{opacity:0.35;fill:#F49257;}
	.st82{opacity:0.7;fill:#F49257;}
	.st83{opacity:0.35;fill:#B14534;}
	.st84{fill:none;stroke:#0000FF;stroke-width:4;stroke-linecap:round;stroke-linejoin:round;stroke-miterlimit:10;}
	.st85{fill:none;stroke:#0000FF;stroke-width:4;stroke-miterlimit:10;}
	.st86{fill:#0000FF;}
	.st87{fill:none;stroke:#0000FF;stroke-width:2;stroke-miterlimit:10;}
	.st88{fill:none;stroke:#0000FF;stroke-width:2;stroke-linecap:round;stroke-linejoin:round;stroke-miterlimit:10;}
	.st89{fill:none;stroke:#0000FF;stroke-miterlimit:10;}
	.st90{fill:#3E5902;}
	.st91{fill:#FFFFFD;stroke:#993300;stroke-width:3;stroke-miterlimit:10;}
	.st92{fill:#FAAF78;stroke:#993300;stroke-width:3;stroke-miterlimit:10;}
	.st93{fill:#FFFFFD;}
	.st94{fill:#FBD4BD;}
	.st95{fill:#F7AF84;}
	.st96{fill:#993300;stroke:#993300;stroke-miterlimit:10;}
	.st97{fill:none;stroke:#FBD4BD;stroke-width:3;}
	.st98{opacity:0.8;}
	.st99{fill:url(#SVGID_00000057864199583217269050000001271050384709950900_);}
	.st100{opacity:0.7;}
	.st101{fill:url(#SVGID_00000074444295313225684430000001775492725851225255_);}
	.st102{opacity:0.3;fill:url(#);}
	.st103{clip-path:url(#SVGID_00000171684911061497526820000004642093754856651394_);}
	.st104{fill:#FFFFFF;stroke:#A4C96A;stroke-width:25;stroke-linecap:round;stroke-linejoin:round;stroke-miterlimit:10;}
	.st105{opacity:0.6;fill:url(#SVGID_00000180327737974127348010000002454381150205323407_);}
	.st106{opacity:0.35;fill:#7B933C;}
	.st107{clip-path:url(#SVGID_00000041980579038841282130000012737521764255662777_);}
	.st108{opacity:0.05;}
	.st109{opacity:0.75;fill:url(#);}
	.st110{fill:#D1E4B4;}
	.st111{fill:#F0B4BB;}
	.st112{fill:#EA402B;}
	.st113{fill:#FAC5C4;}
	.st114{fill:#A92100;}
	.st115{fill:#E7B83F;}
	.st116{fill:#F88093;}
	.st117{fill:none;stroke:#F0B4BB;stroke-width:2.8898;stroke-miterlimit:10;}
	.st118{fill:none;stroke:#EA402B;stroke-width:2.8898;stroke-miterlimit:10;}
	.st119{fill:none;stroke:#A92100;stroke-width:2.8898;stroke-miterlimit:10;}
	.st120{fill:none;stroke:#E7B83F;stroke-width:2.8898;stroke-miterlimit:10;}
	.st121{fill:none;stroke:#F88093;stroke-width:2.8898;stroke-miterlimit:10;}
	.st122{fill:#044348;}
	.st123{fill:#7E1126;}
	.st124{clip-path:url(#SVGID_00000029043296567179856150000002489812080606695103_);}
</style>
<path class="st45" d="M175.81,55.94c-0.99-2.34-2.09-4.64-3.27-6.89c-0.05-0.1-0.11-0.2-0.17-0.3c4.99-13.74,9.39-29.3,4.59-40.99
	c-0.92-2.23-2.77-4.06-5.07-5.03c-10.12-4.22-24.68-1.37-43.42,4.19c-0.34,0.1-0.65,0.27-0.92,0.47c-4.25-1.82-8.65-3.34-13.12-4.49
	c0,0-0.01,0-0.01,0c-1.54-0.4-3.21-0.77-5.11-1.15c0,0,0,0,0,0C97.32-0.63,84.9-0.56,73.13,1.83c-6.02,1.23-11.89,3.1-17.54,5.51
	C55.31,7.13,55,6.96,54.64,6.86c-18.73-5.6-33.29-8.47-43.41-4.27C8.92,3.55,7.07,5.37,6.15,7.61c-4.81,11.69-0.45,27.25,4.52,41
	c-0.55,1.04-1.1,2.08-1.61,3.14c-2.6,5.38-4.67,11.03-6.16,16.8c-0.38,1.48-0.73,2.97-1.03,4.43C0.64,78.99,0.01,85.19,0,91.39
	c0,0.01,0,0.03,0,0.04c0,1.34,0.04,2.66,0.09,3.98c0,0,0,0,0,0l0.05,1.02c0,0,0,0,0,0c0.06,1.22,0.15,2.43,0.26,3.64
	c0,0.01,0.01,0.01,0.01,0.02c0,0.01,0,0.03,0,0.04l0.02,0.28c0,0,0,0,0,0c0,0,0,0.01,0,0.01l0,0.02c0,0,0,0,0,0
	c0.13,1.34,0.29,2.67,0.48,4c0,0,0,0,0,0l0.1,0.69c0.19,1.26,0.4,2.51,0.64,3.75c0,0.01,0,0.01,0.01,0.02c0,0.01,0,0.02,0,0.03
	l0.01,0c0,0,0,0,0,0c0,0.02,0,0.05,0.01,0.07c0,0.01,0.02,0.09,0.02,0.1c0,0,0,0,0,0.01c0,0,0,0,0,0.01
	c0.12,0.61,0.27,1.22,0.4,1.82c0.17,0.77,0.32,1.54,0.51,2.3c0,0,0,0,0,0.01l0.03,0.11l0.01,0.05c0,0,0,0.01,0,0.01
	c0.34,1.36,0.7,2.7,1.09,4.03c0,0,0,0,0,0c0,0.01,0.01,0.02,0.01,0.03c0,0,0,0,0,0c0,0,0,0,0,0c0,0,0,0,0,0.01c0,0,0,0,0,0
	c0.81,2.72,1.75,5.44,2.82,8.07c-0.14-0.34-0.26-0.7-0.39-1.05c-0.59,0.81-1.13,1.67-1.56,2.58c-2.26,4.81-1.9,10.51,0.97,15.24
	c2.13,3.52,5.35,6.07,9.03,7.35c9.05,18.08,39.66,31.06,77.1,31.09c37.48,0.03,68.15-12.92,77.19-31.02
	c6.19-2.31,10.75-8.56,10.82-15.44c0.03-2.43-0.48-4.78-1.49-7c-0.43-0.93-0.96-1.79-1.55-2.61c-0.13,0.34-0.25,0.69-0.39,1.03
	c0.87-2.16,1.65-4.36,2.35-6.57c0.16-0.5,0.34-1,0.49-1.5c0-0.01,0-0.01,0-0.02c0-0.01,0.01-0.02,0.01-0.03c0,0,0-0.01,0-0.01
	c0.4-1.32,0.76-2.66,1.09-4c0,0,0-0.01,0-0.01c0,0,0,0,0-0.01l0.05-0.19c0,0,0,0,0-0.01c0.33-1.36,0.64-2.73,0.92-4.12
	c0,0,0,0,0-0.01c0,0,0,0,0-0.01l0.04-0.22c0,0,0,0,0,0c0.24-1.24,0.45-2.49,0.65-3.74c0,0,0,0,0-0.01c0,0,0,0,0,0l0.1-0.68
	c0,0,0-0.01,0-0.01c0,0,0,0,0,0c0.14-1.01,0.26-2.03,0.37-3.05c0.04-0.33,0.09-0.65,0.12-0.98c0,0,0,0,0,0c0,0,0,0,0-0.01
	c0,0,0-0.01,0-0.01l0.02-0.21l0.01-0.08c0,0,0,0,0,0c0.12-1.22,0.2-2.44,0.27-3.67c0,0,0,0,0,0l0.05-1.01c0,0,0,0,0,0
	c0.06-1.34,0.1-2.68,0.1-4.03C182.98,79.21,180.57,67.23,175.81,55.94z"/>
</svg>
