<?xml version="1.0" encoding="utf-8"?>
<!-- Generator: Adobe Illustrator 25.4.1, SVG Export Plug-In . SVG Version: 6.00 Build 0)  -->
<svg version="1.1" id="Capa_1" xmlns="http://www.w3.org/2000/svg" xmlns:xlink="http://www.w3.org/1999/xlink" x="0px" y="0px"
	 viewBox="0 0 768 768" style="enable-background:new 0 0 768 768;" xml:space="preserve">
<style type="text/css">
	.st0{opacity:0.35;fill:#3E5902;}
	.st1{fill:#3E5902;}
</style>
<g>
	<g>
		<g>
			<path class="st0" d="M669.9,600.84c-30.5,66.37-146.48,115.7-284.95,115.58c-138.24-0.12-253.98-49.5-284.6-115.76
				c3.72,1.01,7.56,1.71,11.57,1.88c9.03,0.38,18.12-1.68,26.19-5.73c4.43-2.22,8.44-5.05,12.17-8.31c5.5-4.82,5.19-5.87,10.25,0.39
				c55.28,68.33,142.56,108.91,230.51,106.71c83.77-2.1,161.23-42.43,215.24-105.54c4.19-4.89,3.97-6.2,9.18-1.93
				c13.32,10.93,31.08,16.83,48.12,14.29C665.76,602.1,667.82,601.44,669.9,600.84z M330.46,303.71c4.1,6.77,3.79,15.53,0.49,23.18
				c-22.56,52.26-38.74,95.91-96.24,115.89c-12.07,4.19-26.37,5.12-37.89,10.49c-15.4,7.18-21.62,25.98-25.21,41.79
				c-6.51,28.69-1.5,56.2,15.61,80.09c16.67,23.28-21.86,45.38-38.34,22.36c-16.74-23.38-25.18-54.2-24.6-84.71
				c-5.95-2.19-10.69-6.88-12.02-14.02c0.17-0.31,0.34-0.61,0.47-0.94c0.09-0.21,0.23-0.38,0.3-0.6c0.96-3.05,1.95-6.09,3.01-9.1v0
				c0,0,0.01-0.01,0.01-0.01C149.92,391.77,232.65,322.49,330.46,303.71z M274,349.87c-0.42,0.3-0.83,0.6-1.23,0.89
				c0.14,0.25,0.3,0.47,0.43,0.73C273.46,350.94,273.74,350.41,274,349.87z M651.34,487.42c0,0,0-0.01-0.01-0.01
				c-27.16-76.61-85.38-136.11-157.38-166.54c-0.63,0.6-1.32,1.16-1.86,1.83c-0.2-0.99-0.4-1.96-0.6-2.95
				c-15.99-6.58-32.69-11.55-49.82-15.14c0.2,0.76,0.3,1.48,0.6,2.26c9.49,25.35,10.67,52.74,19.96,77.72
				c8.57,23.06,26.67,35.19,48.53,44.8c22.41,9.85,68.22,9.45,80.9,30.86c8.05,13.58,10.7,31.55,10.52,49.56
				c-5,19.12-10.15,38.84-5.7,57.86c4.92,21.06,37.93,21.28,42.79,0.04c2.75-12.02,5.08-27.28,6.08-43.66
				c1.18-3.17,2.3-6.29,3.1-9.33c1.98-7.53,3.29-15.32,4.29-23.13C652.26,490.2,651.83,488.8,651.34,487.42z"/>
			<g>
				<path class="st1" d="M279.21,493.39c-21.24-0.02-38.53,13.57-38.55,30.28c-0.02,16.72,17.25,30.33,38.49,30.35
					s38.53-13.57,38.55-30.28C317.72,507.02,300.45,493.41,279.21,493.39z"/>
				<path class="st1" d="M240.92,480.57l65.66,0.06c4.9,0,8.88-3.97,8.88-8.87c0-4.9-3.97-8.88-8.87-8.88l-65.66-0.06
					c-4.9,0-8.88,3.97-8.88,8.87C232.05,476.58,236.02,480.56,240.92,480.57z"/>
				<path class="st1" d="M488.3,554.21c21.24,0.02,38.54-13.57,38.55-30.28c0.02-16.72-17.26-30.33-38.5-30.35
					c-21.24-0.02-38.53,13.57-38.55,30.28C449.79,540.57,467.06,554.19,488.3,554.21z"/>
				<path class="st1" d="M461.01,480.76l65.65,0.06c4.9,0,8.88-3.97,8.88-8.87c0-4.9-3.97-8.88-8.87-8.88l-65.65-0.06
					c-4.9,0-8.88,3.97-8.88,8.87C452.14,476.78,456.11,480.76,461.01,480.76z"/>
				<path class="st1" d="M349.51,577.97l65.66,0.06c4.9,0,8.88-3.97,8.88-8.87c0-4.9-3.97-8.88-8.87-8.88l-65.66-0.06
					c-4.9,0-8.88,3.97-8.88,8.87C340.64,573.99,344.61,577.97,349.51,577.97z"/>
				<path class="st1" d="M333.76,119.11c5.13-0.73,8.69-5.47,7.96-10.59c-0.73-5.12-5.44-8.69-10.59-7.96l-37.47,5.32
					c-5.13,0.73-8.69,5.47-7.96,10.59c0.66,4.67,4.67,8.05,9.26,8.05c0.44,0,0.88-0.03,1.33-0.09L333.76,119.11z"/>
				<circle class="st1" cx="316.34" cy="163.35" r="21.41"/>
				<path class="st1" d="M468.72,106.03l-37.46-5.39c-5.13-0.71-9.87,2.82-10.6,7.94c-0.74,5.12,2.82,9.87,7.94,10.6l37.46,5.39
					c0.45,0.06,0.89,0.1,1.33,0.1c4.59,0,8.6-3.36,9.27-8.04C477.4,111.52,473.84,106.77,468.72,106.03z"/>
				<circle class="st1" cx="445.94" cy="163.46" r="21.41"/>
				<path class="st1" d="M414.63,191.31c-9.07-6.86-21.19-12.32-33.15-11.37c-12.01,0.95-23.47,7.12-32,14.83
					c-6.41,5.79-12.03,13.17-13.86,21.45c-1.2,5.38,0.51,10.77,3.81,15.22c2.68,3.61,6.41,5.83,9.85,8.7
					c3.39,2.83,6.31,6.14,8.63,9.79c2.64,4.15,4.43,8.72,6.67,13.05c2.21,4.26,4.89,9.12,9.12,11.95c1.99,1.33,4.13,2.32,6.56,2.74
					c5.16,0.89,10.51,0.13,14.62-3c3.48-2.65,5.88-6.36,7.91-10.05c2.65-4.81,4.58-9.99,7.55-14.64c2.33-3.64,5.25-6.96,8.65-9.78
					c3.44-2.86,7.18-5.07,9.86-8.68c3.31-4.44,5.02-9.83,3.83-15.21C430.49,206.31,422.93,197.59,414.63,191.31z M374.78,207.84
					c5.19-5.18,13.59-5.17,18.76,0.02c1.55,1.55,1.55,4.07-0.01,5.62l-3.29,3.28c-3.37,3.36-8.83,3.36-12.19-0.01l-3.28-3.29
					C373.22,211.91,373.23,209.4,374.78,207.84z M395.64,238.22c-0.11,0.02-0.23,0.02-0.34,0.03c-0.76,3.55-1.89,7.27-3.54,10.18
					c-0.02,0.04-0.05,0.08-0.07,0.12c-0.25,0.44-0.51,0.86-0.79,1.25c-0.13,0.18-0.26,0.34-0.39,0.51
					c-0.14,0.18-0.28,0.37-0.43,0.54c-0.16,0.19-0.33,0.37-0.5,0.54c-0.12,0.13-0.25,0.25-0.38,0.37c-0.18,0.16-0.36,0.32-0.55,0.47
					c-0.13,0.11-0.27,0.2-0.42,0.3c-0.18,0.13-0.37,0.25-0.56,0.36c-0.17,0.09-0.34,0.17-0.52,0.25c-0.17,0.08-0.34,0.17-0.51,0.23
					c-0.29,0.11-0.59,0.18-0.89,0.24c-0.07,0.01-0.13,0.04-0.2,0.05c0,0-0.01,0-0.01,0c-0.3,0.05-0.6,0.09-0.92,0.1
					c-0.43,0.02-0.84-0.01-1.24-0.07c-0.16-0.02-0.31-0.07-0.47-0.11c-0.24-0.05-0.47-0.1-0.7-0.18c-0.19-0.07-0.38-0.15-0.56-0.24
					c-0.18-0.08-0.37-0.16-0.54-0.26c-0.2-0.11-0.39-0.23-0.58-0.36c-0.16-0.11-0.32-0.22-0.48-0.35c-0.19-0.14-0.37-0.29-0.55-0.46
					c-0.18-0.16-0.35-0.34-0.52-0.51c-0.15-0.15-0.3-0.29-0.44-0.46c-0.33-0.37-0.64-0.77-0.94-1.19c-0.02-0.03-0.04-0.07-0.06-0.1
					c-2.04-2.9-3.5-6.88-4.53-10.67c-0.69-0.17-1.39-0.41-2.07-0.75c-7.06-3.52-7.1-10.96-7.1-11.28c0.01-1.14,0.93-2.05,2.07-2.05
					c1.13,0.01,2.05,0.93,2.05,2.06c0,0.25,0.11,5.23,4.82,7.58c0.69,0.34,1.41,0.51,2.13,0.57c4.2,0.16,8.54-3.46,8.59-3.49
					c0.42-0.35,0.94-0.49,1.45-0.46c0.5-0.04,1.01,0.08,1.43,0.41c0.03,0.03,3.02,2.29,6.26,2.78c0.31,0.04,0.62,0.08,0.93,0.08
					c0.01,0,0.01,0,0.02,0c0.44,0.01,0.89-0.01,1.32-0.08c2.99-0.53,5.21-4.14,5.41-7.19c0.08-1.13,1.06-1.99,2.19-1.92
					c1.13,0.08,1.99,1.06,1.92,2.19C404.13,231.93,400.75,237.32,395.64,238.22z"/>
				<path class="st1" d="M702.35,253.9c-3.72-8.82-7.88-17.51-12.34-26.02c-0.2-0.38-0.43-0.74-0.63-1.12
					c18.85-51.87,35.44-110.61,17.34-154.76c-3.46-8.43-10.44-15.34-19.15-18.97c-38.2-15.91-93.16-5.18-163.92,15.82
					c-1.29,0.38-2.44,1-3.47,1.76c-16.05-6.89-32.64-12.6-49.53-16.96c-0.02-0.01-0.03-0.01-0.05-0.02
					c-5.82-1.5-12.13-2.92-19.28-4.33c0,0-0.01,0-0.01,0c-45.27-8.95-92.16-8.71-136.61,0.34c-22.72,4.63-44.9,11.69-66.22,20.8
					c-1.05-0.79-2.24-1.43-3.57-1.83C174.2,47.47,119.26,36.64,81.03,52.48c-8.72,3.61-15.71,10.51-19.18,18.94
					c-18.17,44.11-1.7,102.87,17.06,154.77c-2.09,3.92-4.15,7.85-6.08,11.84c-9.8,20.29-17.62,41.63-23.24,63.41
					c-1.44,5.58-2.74,11.2-3.88,16.71c-4.68,22.77-7.06,46.18-7.08,69.59c0,0.05,0.01,0.1,0.01,0.15c0,5.04,0.13,10.05,0.35,15.04
					c0,0,0,0.01,0,0.01l0.19,3.85c0,0,0,0.01,0,0.01c0.24,4.6,0.57,9.18,1,13.72c0,0.03,0.02,0.05,0.02,0.07
					c0,0.05-0.01,0.1-0.01,0.15l0.09,1.04c0,0.01,0,0.01,0,0.02c0,0.01,0,0.02,0.01,0.04l0,0.08c0,0.01,0.01,0.01,0.01,0.02
					c0.5,5.07,1.11,10.09,1.83,15.09c0,0,0,0.01,0,0.01l0.39,2.59c0.71,4.76,1.51,9.48,2.41,14.18c0.01,0.02,0.02,0.04,0.02,0.06
					c0.01,0.03,0.01,0.07,0.01,0.1l0.03,0c0,0,0,0.01,0,0.01c0.01,0.09,0.01,0.18,0.02,0.27c0.01,0.02,0.06,0.34,0.06,0.36
					c0,0.01,0.01,0.02,0.01,0.02c0,0.01,0,0.01,0,0.02c0.45,2.32,1.02,4.59,1.52,6.89c0.63,2.9,1.21,5.83,1.91,8.7
					c0,0.01,0.01,0.02,0.01,0.02l0.1,0.42l0.05,0.18c0,0.01,0,0.03,0.01,0.04c1.27,5.12,2.64,10.19,4.13,15.23
					c0,0.01,0.01,0.01,0.01,0.02c0.01,0.04,0.02,0.09,0.03,0.13c0,0,0,0.01,0,0.01c0,0.01,0,0.01,0,0.01c0,0.01,0,0.02,0.01,0.03
					c0,0,0,0.01,0.01,0.01c3.04,10.27,6.62,20.52,10.63,30.48c-0.52-1.3-0.97-2.64-1.48-3.95c-2.23,3.08-4.26,6.3-5.88,9.76
					c-8.53,18.17-7.17,39.68,3.65,57.54c8.04,13.27,20.19,22.91,34.1,27.76c34.15,68.24,149.74,117.25,291.06,117.37
					c141.5,0.13,257.28-48.79,291.4-117.1c23.37-8.74,40.57-32.33,40.85-58.3c0.1-9.17-1.8-18.05-5.64-26.41
					c-1.61-3.5-3.63-6.76-5.84-9.86c-0.5,1.3-0.96,2.61-1.48,3.9c3.3-8.15,6.21-16.48,8.86-24.81c0.6-1.9,1.28-3.78,1.85-5.68
					c0.01-0.02,0.01-0.04,0.01-0.06c0.01-0.04,0.02-0.08,0.04-0.12c0-0.01,0.01-0.02,0.02-0.04c1.49-4.99,2.86-10.03,4.13-15.12
					c0-0.02,0-0.03,0-0.05c0-0.01,0.01-0.02,0.01-0.02l0.18-0.71c0-0.01,0.01-0.01,0.01-0.02c1.26-5.14,2.42-10.32,3.46-15.55
					c0-0.01,0-0.01,0-0.02c0-0.01,0.01-0.02,0.01-0.02l0.15-0.83c0,0,0-0.01,0-0.01c0.92-4.68,1.71-9.38,2.44-14.13
					c0-0.01,0-0.02,0-0.03c0,0,0-0.01,0-0.01l0.39-2.58c0-0.01,0-0.02,0-0.03c0-0.01,0-0.01,0-0.01c0.55-3.82,0.98-7.66,1.41-11.51
					c0.14-1.24,0.33-2.47,0.46-3.71c0,0,0-0.01,0-0.01c0-0.01,0-0.02,0-0.02c0-0.01,0-0.02,0-0.03l0.07-0.78l0.03-0.31
					c0,0,0-0.01,0-0.01c0.44-4.6,0.77-9.22,1.03-13.86c0,0,0-0.01,0-0.01l0.19-3.82c0,0,0-0.01,0-0.01
					c0.22-5.05,0.38-10.13,0.38-15.23C729.42,341.73,720.32,296.5,702.35,253.9z M626.62,103.24c6.8,0.01,12.86,0.9,17.89,2.99
					c1.3,0.55,2.33,1.53,2.8,2.68c5.81,14.19,2.81,33.29-2.82,52.43c-1.54-1.77-3.05-3.56-4.63-5.29
					c-14.82-16.34-31.29-31.34-48.96-44.57c-1.01-0.76-2.07-1.46-3.09-2.2C601.85,105.73,615.27,103.23,626.62,103.24z
					 M121.2,108.44c0.48-1.16,1.5-2.13,2.81-2.68c5.03-2.08,11.09-2.97,17.89-2.96c11.33,0.01,24.71,2.53,38.73,6.09
					c-5.48,4-10.85,8.14-16.08,12.45c-14.62,12.05-28.15,25.36-40.6,39.6C118.33,141.77,115.35,122.64,121.2,108.44z M74.96,570.97
					c-7.85-12.95-8.86-27.82-2.76-40.79c6.43-13.7,20.09-23.64,35.64-25.95c3.47-0.52,6.54-2.5,8.4-5.45
					c1.85-2.92,2.33-6.5,1.32-9.82c-0.28-0.9-0.48-1.82-0.75-2.72c3.21-8.92,6.97-17.51,10.99-25.94c0.14,0.5,0.17,1,0.41,1.48
					c1.56,3.09,4.68,4.87,7.92,4.87c1.35,0,2.72-0.3,4.01-0.96c5.86-2.96,11.59-6.17,17.16-9.58c-1.01,11.89-2.74,23.93-4.54,36.32
					c-1.52,10.46-3.09,21.27-4.17,32.01c-1.15,11.49-1.92,25.05,1.11,38.5c1.03,4.59,2.63,8.85,4.46,12.94
					c-3.55,0.53-6.13,2.71-8.23,4.61l-1.49,1.34c-3.39,2.97-6.75,5.28-10.28,7.05c-6.9,3.45-14.41,5.12-21.84,4.8
					C97.14,593.03,83.18,584.54,74.96,570.97z M210.75,442.7c4.79,1.15,9.72,1.73,14.78,1.74c16.51,0.01,34.43-6.06,53.51-18.17
					c7-4.45,15.95-10.67,23.07-19.35c8.3-10.15,13.96-23.42,17.31-40.58c1.42-7.28,2.34-14.62,3.23-21.7
					c0.79-6.3,1.54-12.24,2.61-18.2c0.84-4.69,1.92-9.56,4.1-13.52c3.53-6.43,10.84-10.98,18.18-11.32
					c1.36-0.06,2.59-0.48,3.72-1.08c-6.56,0.76-13.06,1.74-19.49,2.93c17.06-3.2,34.52-5.04,52.32-5.02
					c10.98,0.01,21.8,0.87,32.53,2.12c1.14,0.61,2.38,1.05,3.75,1.11c7.34,0.35,14.64,4.91,18.16,11.35
					c2.16,3.95,3.23,8.84,4.07,13.53c1.06,5.95,1.79,11.88,2.57,18.17c0.88,7.11,1.8,14.45,3.21,21.75
					c3.32,17.17,8.96,30.46,17.24,40.61c7.09,8.69,16.03,14.93,23.02,19.39c19.05,12.14,36.97,18.25,53.48,18.27
					c5.07,0,10-0.56,14.79-1.71c4.77-1.15,7.71-5.93,6.57-10.7c-1.15-4.76-5.91-7.68-10.7-6.57c-15.53,3.72-33.91-1.08-54.59-14.26
					c-5.88-3.74-13.33-8.91-18.82-15.64c-6.38-7.82-10.82-18.54-13.57-32.76c-1.3-6.7-2.14-13.44-3.02-20.56
					c-0.77-6.23-1.57-12.68-2.71-19.09c-0.9-5.04-2.12-10.33-4.35-15.48c76.35,20.08,141.72,71.4,179.01,141.9
					c-8.79-4.52-17.16-9.68-25.18-15.22c0.08-5.24,0.35-10.47,0.96-15.71c0.56-4.86-2.93-9.27-7.8-9.84
					c-4.81-0.58-9.27,2.92-9.83,7.8c-0.19,1.6-0.27,3.2-0.41,4.8c-23.68-19.93-42.25-43.92-52.43-68.92
					c-1.85-4.54-7.02-6.73-11.57-4.87c-4.54,1.85-6.72,7.03-4.87,11.57c12.78,31.35,37.24,61.22,68.29,84.47
					c0.52,17.37,2.95,34.58,5.36,51.41c1.47,10.27,3,20.9,4.02,31.25c0.99,10.06,1.67,21.82-0.82,32.82
					c-1.72,7.54-5.68,14.63-9.88,22.13c-1.53,2.74-3.07,5.47-4.5,8.25c-1.48,2.86-1.11,6.09,0.46,8.66
					c-52.87,54.48-123.19,86.45-195.71,88.27c-77.68,1.95-156.48-31.58-210.11-88.38c1.72-2.59,2.14-5.95,0.61-8.91
					c-1.42-2.76-2.95-5.5-4.47-8.23c-4.19-7.51-8.15-14.62-9.85-22.17c-2.47-10.97-1.77-22.75-0.76-32.82
					c1.04-10.35,2.58-20.97,4.08-31.24c2.44-16.83,4.9-34.03,5.45-51.4c31.1-23.2,55.62-53.02,68.45-84.35
					c1.86-4.53-0.31-9.72-4.85-11.58c-4.55-1.86-9.73,0.31-11.58,4.85c-10.23,24.99-28.85,48.95-52.56,68.83
					c-0.13-1.6-0.22-3.2-0.4-4.8c-0.56-4.88-5.03-8.39-9.82-7.81c-4.87,0.56-8.37,4.96-7.81,9.82c0.6,5.24,0.85,10.47,0.93,15.71
					c-7.9,5.43-16.15,10.49-24.78,14.93c37.37-70.31,102.6-121.38,178.83-141.35c-2.25,5.15-3.48,10.44-4.38,15.48
					c-1.15,6.41-1.96,12.87-2.75,19.12c-0.9,7.11-1.74,13.83-3.04,20.52c-2.77,14.21-7.23,24.92-13.63,32.74
					c-5.51,6.72-12.97,11.87-18.84,15.61c-20.71,13.14-39.08,17.91-54.61,14.16c-4.74-1.1-9.55,1.79-10.71,6.55
					C203.06,436.76,205.99,441.55,210.75,442.7z M384.96,707.55c-124.53-0.11-230.36-40.46-268.45-96.25
					c8.79-0.34,17.52-2.51,25.58-6.55c4.5-2.25,8.73-5.07,12.91-8.6c55.3,67.26,142.34,108.34,229.14,108.41
					c2.37,0,4.76-0.03,7.12-0.09c83.23-2.09,163.67-41.3,220.9-107.64c12.23,9.25,26.98,14.45,41.44,14.93
					C615.42,667.49,509.5,707.66,384.96,707.55z M662.27,593.65c-13.83,2.06-29.21-2.56-41.18-12.38c-1.91-1.57-4.64-3.69-8.09-4.33
					c1.96-4.28,3.66-8.75,4.75-13.58c3.06-13.47,2.31-27.02,1.17-38.5c-1.06-10.74-2.61-21.55-4.11-32.01
					c-1.77-12.38-3.48-24.43-4.47-36.32c5.57,3.42,11.29,6.64,17.15,9.61c1.28,0.65,2.65,0.96,4,0.96c3.23,0,6.36-1.77,7.92-4.86
					c0.29-0.57,0.35-1.17,0.49-1.76c4.2,8.74,8.14,17.65,11.44,26.94c-0.21-0.58-0.47-1.13-0.68-1.71
					c-0.45,2.13-0.89,4.31-1.36,6.38c-2.1,9.09,3.37,11.69,5.81,12.38l8.14,2.26l0.36-1.08c13.66,2.97,25.95,12.55,31.81,25.27
					c2.74,5.95,4.09,12.27,4.02,18.79C699.21,571.27,682.88,590.57,662.27,593.65z M711.25,402.8c0,0,0,0.01,0,0.01c0,0,0,0,0,0.01
					l-0.18,3.59c0,0,0,0.01,0,0.01c0,0,0,0,0,0c-0.25,4.41-0.55,8.8-0.97,13.17c0,0.01,0,0.02-0.01,0.03c0,0.03-0.08,0.98-0.08,1.02
					c0,0,0,0,0,0.01c0,0.02-0.01,0.04-0.01,0.06c-0.12,1.18-0.3,2.35-0.43,3.52c-0.41,3.65-0.82,7.29-1.34,10.91l-0.39,2.53
					c0,0,0,0,0,0c-0.69,4.51-1.45,8.99-2.32,13.44c0,0,0,0.01,0,0.01c0,0,0,0.01,0,0.02l-0.15,0.83c0,0,0,0.01,0,0.01
					c-0.98,4.94-2.07,9.83-3.27,14.69c-0.02,0.07-0.01,0.14-0.03,0.21c-0.02,0.08-0.06,0.15-0.08,0.23c0,0.01-0.06,0.22-0.06,0.23
					c0,0.02,0,0.03-0.01,0.05c0,0.02-0.01,0.04-0.02,0.06c-1.19,4.81-2.49,9.58-3.91,14.31c0,0.01,0,0.03-0.01,0.04
					c0,0.01-0.01,0.02-0.01,0.03c-0.01,0.01-0.02,0.06-0.02,0.07c0,0.01,0,0.02-0.01,0.04c-0.01,0.01-0.01,0.03-0.02,0.04
					c-1.68,5.62-3.56,11.2-5.55,16.73c-6.63-5.03-14.16-8.77-22.22-10.89c-0.69-2.1-1.35-4.21-2.09-6.29c0-0.01,0-0.01-0.01-0.02
					c-13.76-38.8-35.09-73.4-61.84-102.59c2.64-9.94,4.38-21.84,4.92-36.37l22.21,18.1c-1.41-28.36-1.89-56.32-30.45-96.5
					l29.11-1.97c-20.5-33.43-46.85-62.24-78.75-86.67c-14.97-11.46-36.54-11.21-49.6,2.4c-8.84,9.21-9.11,19.28,0.99,30.38
					c11.38,12.51,21.37,26.3,27.4,42.1c9.7,25.45,14.45,50.85,11.08,76.16c-46.75-29.15-101.5-45.78-159.03-45.83
					c-57.57-0.05-112.34,16.44-159.12,45.48c-3.31-25.29,1.49-50.66,11.23-76.07c6.05-15.79,16.07-29.56,27.47-42.05
					c10.12-11.09,9.87-21.15,1.04-30.38c-13.03-13.63-34.6-13.92-49.6-2.49c-31.94,24.37-58.34,53.13-78.91,86.53l29.11,2.03
					c-28.63,40.13-29.16,68.09-30.62,96.45l22.25-18.06c0.52,14.52,2.23,26.41,4.85,36.35c-27.09,29.46-48.66,64.47-62.49,103.79
					c0,0.01,0,0.01-0.01,0.02c-0.57,1.63-1.08,3.28-1.63,4.92c-8.1,2.21-15.71,5.83-22.34,10.81c-1.98-5.55-3.8-11.15-5.47-16.75
					c-0.01-0.02-0.02-0.05-0.03-0.07c-0.01-0.03-0.01-0.06-0.02-0.09c-1.41-4.77-2.71-9.59-3.91-14.44c0-0.02-0.01-0.03-0.01-0.04
					l-0.1-0.37l-0.04-0.16c0-0.01,0-0.03-0.01-0.04c-0.66-2.72-1.22-5.49-1.82-8.25c-0.47-2.18-1.01-4.34-1.44-6.54
					c0-0.02-0.01-0.05-0.02-0.07c-0.01-0.03,0-0.07-0.01-0.1c-0.01-0.06-0.08-0.39-0.12-0.6c0-0.01,0-0.02,0-0.03
					c-0.86-4.45-1.61-8.93-2.29-13.45l-0.37-2.47c0,0,0,0,0-0.01c-0.68-4.77-1.28-9.58-1.74-14.42c-0.01-0.09-0.04-0.18-0.05-0.27
					c-0.01-0.12,0.01-0.24-0.01-0.36c0-0.03-0.03-0.47-0.03-0.5c0-0.02-0.01-0.04-0.01-0.06c0-0.02,0-0.03,0-0.05
					c-0.4-4.32-0.71-8.67-0.94-13.03c0,0,0,0,0,0c0,0,0-0.01,0-0.01l-0.17-3.63c0,0,0,0,0-0.01c0,0,0-0.01,0-0.01
					c-0.2-4.77-0.34-9.55-0.34-14.38c0-0.1,0-0.21-0.01-0.31c0.04-22.13,2.3-44.26,6.72-65.76c1.07-5.22,2.31-10.55,3.68-15.85
					c5.33-20.65,12.74-40.88,22.04-60.12c9.14-18.93,20.19-37.08,32.83-53.95c15.7-20.97,33.93-40.06,54.19-56.75
					c20.35-16.77,42.7-31.05,66.4-42.45c24.16-11.62,49.74-20.23,76.01-25.58c42.15-8.59,86.64-8.81,129.62-0.32c0,0,0,0,0,0
					c6.82,1.35,12.81,2.7,18.3,4.11c0.01,0,0.02,0,0.03,0c20.66,5.35,40.88,12.76,60.09,22.04c18.92,9.13,37.07,20.17,53.95,32.83
					c16.77,12.56,32.4,26.79,46.46,42.3c10.57,11.66,20.38,24.16,29.13,37.14c0.01,0.01,0.01,0.01,0.01,0.02
					c2.93,4.35,5.76,8.77,8.48,13.26c0.01,0.01,0.01,0.02,0.01,0.02c8.21,13.54,15.5,27.8,21.65,42.37
					c17.05,40.4,25.67,83.32,25.63,127.55C711.62,393.19,711.47,398,711.25,402.8z"/>
			</g>
		</g>
	</g>
</g>
</svg>
