<?xml version="1.0" encoding="utf-8"?>
<!-- Generator: Adobe Illustrator 25.4.1, SVG Export Plug-In . SVG Version: 6.00 Build 0)  -->
<svg version="1.1" id="Capa_1" xmlns="http://www.w3.org/2000/svg" xmlns:xlink="http://www.w3.org/1999/xlink" x="0px" y="0px"
	 viewBox="0 0 182.97 180.81" style="enable-background:new 0 0 182.97 180.81;" xml:space="preserve">
<style type="text/css">
	.st0{fill:#FEF1E8;}
	.st1{fill:#FAAF78;}
	.st2{opacity:0.35;fill:#993300;}
	.st3{fill:#993300;}
	.st4{clip-path:url(#SVGID_00000094613302533762117000000018390983739539704737_);}
	.st5{opacity:0.6;}
	.st6{clip-path:url(#SVGID_00000004545045399765427530000016884702652390414997_);}
	.st7{fill:#FEF4EE;}
	.st8{opacity:0.1;fill:#577D1E;}
	.st9{opacity:0.6;fill:url(#SVGID_00000059310315044905981290000009768684232990820496_);}
	.st10{fill:#FFFFFF;}
	.st11{opacity:0.2;fill:#A4C96A;}
	.st12{opacity:0.4;fill:#FF7A8E;}
	.st13{opacity:0.5;}
	.st14{fill:#FF7A8E;}
	.st15{opacity:0.2118;}
	.st16{fill:#6B1952;}
	.st17{fill:#F77D48;}
	.st18{fill:#A33C34;}
	.st19{opacity:0.2;}
	.st20{fill:#39005E;}
	.st21{fill-rule:evenodd;clip-rule:evenodd;fill:#6B1952;}
	.st22{fill:#FF6294;}
	.st23{fill-rule:evenodd;clip-rule:evenodd;fill:#FFFFFF;}
	.st24{opacity:0.35;}
	.st25{fill:#6B184E;}
	.st26{opacity:0.5;fill:#FFFFFF;}
	.st27{opacity:0.4;}
	.st28{fill:none;stroke:#F49257;stroke-miterlimit:10;}
	.st29{fill:#95224C;stroke:#95224C;stroke-width:2;stroke-linecap:round;stroke-linejoin:round;stroke-miterlimit:10;}
	.st30{fill:#95224C;}
	.st31{fill:#B14534;stroke:#B14534;stroke-width:3;stroke-miterlimit:10;}
	.st32{fill:#F49257;stroke:#F49257;stroke-width:3;stroke-linecap:round;stroke-linejoin:round;stroke-miterlimit:10;}
	.st33{fill:#B14534;}
	.st34{fill:none;stroke:#B14534;stroke-width:3;stroke-miterlimit:10;}
	.st35{fill:#FFFFFF;stroke:#F49257;stroke-width:3;stroke-miterlimit:10;}
	.st36{fill:#FFFFFF;stroke:#B14534;stroke-width:3;stroke-miterlimit:10;}
	.st37{fill:none;stroke:#F49257;stroke-width:3;stroke-linecap:round;stroke-linejoin:round;stroke-miterlimit:10;}
	.st38{fill:#F49257;stroke:#F49257;stroke-miterlimit:10;}
	.st39{fill:#7B933C;}
	.st40{clip-path:url(#SVGID_00000115483116917736450770000000423928110642480570_);fill:#B14534;}
	.st41{fill:#F49257;}
	.st42{fill:none;stroke:#F49257;stroke-width:3;stroke-miterlimit:10;}
	.st43{fill:none;stroke:#95224C;stroke-width:3;stroke-linecap:round;stroke-miterlimit:10;}
	.st44{fill:none;stroke:#B14534;stroke-width:3;stroke-linecap:round;stroke-miterlimit:10;}
	.st45{opacity:0.5;fill:#FAAF78;stroke:#F49257;stroke-width:3;stroke-miterlimit:10;}
	.st46{clip-path:url(#SVGID_00000088117528709596901710000016459585932152470409_);fill:#B14534;}
	.st47{fill:#CA5E72;}
	.st48{fill:#F49257;stroke:#FAAF78;stroke-width:2;stroke-miterlimit:10;}
	.st49{fill:#7B933C;stroke:#A4C96A;stroke-width:2;stroke-miterlimit:10;}
	.st50{fill:#B14534;stroke:#D86F67;stroke-width:2;stroke-miterlimit:10;}
	.st51{opacity:0.5;fill:#F49257;}
	.st52{opacity:0.5;fill:#FAAF78;}
	.st53{clip-path:url(#SVGID_00000000222018102377869900000017105494667310604436_);}
	.st54{opacity:0.5;fill:#CA5E72;}
	.st55{clip-path:url(#SVGID_00000162328547313127983400000002213895067179405725_);}
	.st56{clip-path:url(#SVGID_00000003788116521645417800000003240876485555029937_);}
	.st57{clip-path:url(#SVGID_00000167362508926858840580000003837585608199383434_);}
	.st58{clip-path:url(#SVGID_00000045614322778417109550000008367415227794965646_);}
	.st59{clip-path:url(#SVGID_00000112614892986718938180000000244538156492761778_);}
	.st60{fill:#09487E;}
	.st61{opacity:0.5;fill:#09487E;}
	.st62{clip-path:url(#SVGID_00000052820582111906007490000014409658548300582018_);}
	.st63{clip-path:url(#SVGID_00000172409109788951531190000015906845465944831925_);}
	.st64{clip-path:url(#SVGID_00000042712568111649840750000017676138203141285531_);}
	.st65{fill:url(#SVGID_00000050633292300994316140000009052863196402842017_);}
	.st66{clip-path:url(#SVGID_00000043434813918741728500000017048886044080208287_);}
	.st67{fill:#7B933C;stroke:#FFFFFF;stroke-width:0.25;stroke-miterlimit:10;}
	.st68{clip-path:url(#SVGID_00000106129703743882003520000007356116330841346746_);}
	.st69{opacity:0.5;fill:#95224C;}
	.st70{clip-path:url(#SVGID_00000168810238779512413600000001331522579836365487_);}
	.st71{clip-path:url(#SVGID_00000137116624044827977390000000480634257276068496_);}
	.st72{clip-path:url(#SVGID_00000080171841955223120720000002412139668032125621_);}
	.st73{fill:url(#SVGID_00000138573551924617307020000008366040091708973724_);}
	.st74{clip-path:url(#SVGID_00000048478609119988727250000000335461905636473233_);}
	.st75{opacity:0.5;fill:#A4C96A;}
	.st76{fill:#A4C96A;}
	.st77{opacity:0.35;fill:#95224C;}
	.st78{fill:#DFDFDF;}
	.st79{clip-path:url(#SVGID_00000144321098977451519190000009813134921533260685_);fill:#B14534;}
	.st80{fill:#577D1E;}
	.st81{clip-path:url(#SVGID_00000078014802726106631330000000002196758453739931_);}
	.st82{clip-path:url(#SVGID_00000070830031863161843340000005787789140561779585_);}
	.st83{opacity:0.35;fill:#F49257;}
	.st84{opacity:0.7;fill:#F49257;}
	.st85{opacity:0.35;fill:#B14534;}
	.st86{fill:none;stroke:#0000FF;stroke-width:4;stroke-linecap:round;stroke-linejoin:round;stroke-miterlimit:10;}
	.st87{fill:none;stroke:#0000FF;stroke-width:4;stroke-miterlimit:10;}
	.st88{fill:#0000FF;}
	.st89{fill:none;stroke:#0000FF;stroke-width:2;stroke-miterlimit:10;}
	.st90{fill:none;stroke:#0000FF;stroke-width:2;stroke-linecap:round;stroke-linejoin:round;stroke-miterlimit:10;}
	.st91{fill:none;stroke:#0000FF;stroke-miterlimit:10;}
	.st92{fill:#3E5902;}
	.st93{fill:#FFFFFD;stroke:#993300;stroke-width:3;stroke-miterlimit:10;}
	.st94{fill:#FAAF78;stroke:#993300;stroke-width:3;stroke-miterlimit:10;}
	.st95{fill:#FFFFFD;}
	.st96{fill:#FBD4BD;}
	.st97{fill:#F7AF84;}
	.st98{fill:#993300;stroke:#993300;stroke-miterlimit:10;}
	.st99{fill:none;stroke:#FBD4BD;stroke-width:3;}
	.st100{opacity:0.8;}
	.st101{fill:url(#SVGID_00000013190930483089978440000013119599843291857298_);}
	.st102{opacity:0.7;}
	.st103{fill:url(#SVGID_00000103970709027709452600000004895674033209576079_);}
	.st104{opacity:0.3;fill:url(#);}
	.st105{clip-path:url(#SVGID_00000142164252653081309990000000419503398253515679_);}
	.st106{fill:#FFFFFF;stroke:#A4C96A;stroke-width:25;stroke-linecap:round;stroke-linejoin:round;stroke-miterlimit:10;}
	.st107{opacity:0.6;fill:url(#SVGID_00000013169087356284516450000001606449400496470179_);}
	.st108{opacity:0.35;fill:#7B933C;}
	.st109{clip-path:url(#SVGID_00000067928069603543126320000008420960925770043543_);}
	.st110{opacity:0.05;}
	.st111{opacity:0.75;fill:url(#);}
	.st112{fill:#D1E4B4;}
	.st113{fill:#F0B4BB;}
	.st114{fill:#EA402B;}
	.st115{fill:#FAC5C4;}
	.st116{fill:#A92100;}
	.st117{fill:#E7B83F;}
	.st118{fill:#F88093;}
	.st119{fill:none;stroke:#F0B4BB;stroke-width:2.8898;stroke-miterlimit:10;}
	.st120{fill:none;stroke:#EA402B;stroke-width:2.8898;stroke-miterlimit:10;}
	.st121{fill:none;stroke:#A92100;stroke-width:2.8898;stroke-miterlimit:10;}
	.st122{fill:none;stroke:#E7B83F;stroke-width:2.8898;stroke-miterlimit:10;}
	.st123{fill:none;stroke:#F88093;stroke-width:2.8898;stroke-miterlimit:10;}
	.st124{fill:#044348;}
	.st125{fill:#7E1126;}
	.st126{clip-path:url(#SVGID_00000162342418015723190140000018045468810174341049_);}
</style>
<g>
	<path class="st33" d="M122.78,89.24c-2.68,0-4.89,1.96-5.32,4.52H93.63l16.85-16.85c2.11,1.51,5.06,1.33,6.96-0.56
		c2.11-2.11,2.11-5.54,0-7.65c-2.11-2.11-5.54-2.11-7.65,0c-1.9,1.9-2.08,4.85-0.57,6.96L92.37,92.5V68.67
		c2.56-0.43,4.52-2.64,4.52-5.32c0-2.99-2.42-5.41-5.41-5.41c-2.99,0-5.41,2.42-5.41,5.41c0,2.68,1.96,4.89,4.52,5.32V92.5
		L73.74,75.65c1.51-2.11,1.33-5.06-0.57-6.96c-2.11-2.11-5.54-2.11-7.65,0c-2.11,2.11-2.11,5.54,0,7.65c1.9,1.9,4.85,2.08,6.96,0.56
		l16.85,16.85H65.51c-0.43-2.56-2.64-4.52-5.32-4.52c-2.99,0-5.41,2.42-5.41,5.41c0,2.99,2.42,5.41,5.41,5.41
		c2.68,0,4.89-1.96,5.32-4.52h23.83l-16.85,16.85c-2.11-1.51-5.06-1.33-6.96,0.57c-2.11,2.11-2.11,5.54,0,7.65
		c2.11,2.11,5.54,2.11,7.65,0c1.9-1.9,2.08-4.85,0.57-6.96l16.85-16.85v23.83c-2.56,0.43-4.52,2.64-4.52,5.32
		c0,2.99,2.42,5.41,5.41,5.41c2.99,0,5.41-2.42,5.41-5.41c0-2.68-1.96-4.89-4.52-5.32V96.79l16.85,16.85
		c-1.51,2.11-1.33,5.06,0.57,6.96c2.11,2.11,5.54,2.11,7.65,0c2.11-2.11,2.11-5.54,0-7.65c-1.9-1.9-4.85-2.08-6.96-0.57L93.63,95.53
		h23.83c0.43,2.56,2.64,4.52,5.32,4.52c2.99,0,5.41-2.42,5.41-5.41C128.19,91.66,125.77,89.24,122.78,89.24z"/>
	<path class="st33" d="M180.1,75.54c-1.78-18.85-17.38-34.25-36.27-35.83c-4.3-0.35-8.52-0.04-12.63,0.94
		C129.56,20.17,112.38,4,91.48,4C70.59,4,53.4,20.17,51.77,40.65c-4.1-0.98-8.32-1.3-12.62-0.94C20.25,41.29,4.65,56.7,2.87,75.54
		c-1.69,17.83,8.32,34.07,24.34,40.67c-4.72,7.68-6.66,16.67-5.5,25.88c2.26,17.99,16.98,32.49,35.02,34.47
		c1.51,0.17,3.01,0.25,4.5,0.25c11.73,0,22.69-5.06,30.25-13.92c8.51,9.98,21.35,15.15,34.75,13.67
		c18.04-1.98,32.76-16.48,35.02-34.47c1.16-9.21-0.78-18.2-5.5-25.88C171.78,109.61,181.78,93.37,180.1,75.54z M148.06,109.98
		c-1.4,0.35-2.52,1.39-2.96,2.75c-0.45,1.37-0.15,2.87,0.77,3.97c5.71,6.79,8.24,15.44,7.12,24.34
		c-1.78,14.2-13.42,25.65-27.66,27.21c-12.2,1.34-23.82-4.26-30.31-14.63c-1.52-2.43-5.54-2.43-7.07,0
		C81.47,164,69.8,169.6,57.65,168.27c-14.25-1.56-25.88-13.01-27.66-27.21c-1.12-8.9,1.41-17.55,7.12-24.34
		c0.92-1.1,1.22-2.6,0.77-3.97c-0.45-1.37-1.56-2.41-2.96-2.75C19.67,106.2,9.68,92.05,11.17,76.33
		c1.41-14.89,13.73-27.06,28.66-28.31c0.91-0.07,1.81-0.11,2.72-0.11c4.06,0,8.01,0.77,11.79,2.3c1.33,0.54,2.85,0.36,4.01-0.49
		c1.16-0.84,1.81-2.23,1.71-3.66c-0.05-0.73-0.09-1.47-0.09-2.21c0-17.37,14.13-31.5,31.5-31.5c17.37,0,31.5,14.13,31.5,31.5
		c0,0.74-0.03,1.48-0.08,2.21c-0.1,1.43,0.55,2.82,1.71,3.66c1.16,0.85,2.68,1.03,4.01,0.49c4.61-1.87,9.49-2.59,14.51-2.19
		c14.93,1.25,27.26,13.42,28.66,28.31v0C173.28,92.05,163.3,106.2,148.06,109.98z"/>
</g>
</svg>
